solid KnifePushPlate
facet normal 9.380345887893225e-16 -3.0969334495538074e-15 -1.0
  outer loop
    vertex 33.913656448811146 1.0377476655776262e-12 9.023892744153272e-14
    vertex 9.863656448811266 20.90748000000105 0.0
    vertex 33.91365644881123 20.907480000001005 2.255973186038318e-14
  endloop
endfacet
facet normal 9.380345887893225e-16 -3.0969334495538074e-15 -1.0
  outer loop
    vertex 9.863656448811266 20.90748000000105 0.0
    vertex 33.913656448811146 1.0377476655776262e-12 9.023892744153272e-14
    vertex 9.863656448811287 1.071587263368201e-12 6.767919558114953e-14
  endloop
endfacet
facet normal -9.380345887893631e-16 -4.316107318602382e-14 1.0
  outer loop
    vertex 9.86365644881113 20.907480000000035 168.61875900000027
    vertex 33.913656448811004 -2.255973186038318e-14 168.6187589999994
    vertex 33.913656448811054 20.907479999999946 168.6187590000003
  endloop
endfacet
facet normal -9.380345887893631e-16 -4.316107318602382e-14 1.0
  outer loop
    vertex 33.913656448811004 -2.255973186038318e-14 168.6187589999994
    vertex 9.86365644881113 20.907480000000035 168.61875900000027
    vertex 9.863656448811108 1.0151879337172431e-13 168.61875899999936
  endloop
endfacet
facet normal 8.951173136040366e-16 1.0 6.373184805771994e-16
  outer loop
    vertex 33.91365644881123 20.907480000001005 2.255973186038318e-14
    vertex 9.86365644881113 20.907480000000035 168.61875900000027
    vertex 33.913656448811054 20.907479999999946 168.6187590000003
  endloop
endfacet
facet normal 8.951173136040366e-16 1.0 6.373184805771994e-16
  outer loop
    vertex 9.86365644881113 20.907480000000035 168.61875900000027
    vertex 33.91365644881123 20.907480000001005 2.255973186038318e-14
    vertex 9.863656448811266 20.90748000000105 0.0
  endloop
endfacet
facet normal -1.0 2.2072554507243284e-16 -9.559777208658027e-16
  outer loop
    vertex 9.86365644881113 20.907480000000035 168.61875900000027
    vertex 9.863656448811287 1.071587263368201e-12 6.767919558114953e-14
    vertex 9.863656448811108 1.0151879337172431e-13 168.61875899999936
  endloop
endfacet
facet normal -1.0 2.2072554507243284e-16 -9.559777208658027e-16
  outer loop
    vertex 9.863656448811287 1.071587263368201e-12 6.767919558114953e-14
    vertex 9.86365644881113 20.907480000000035 168.61875900000027
    vertex 9.863656448811266 20.90748000000105 0.0
  endloop
endfacet
facet normal 1.0 -3.286027807701458e-14 7.715366573318571e-16
  outer loop
    vertex 33.91365644881096 16.84980000000098 1.911575000000016
    vertex 33.91365644881103 17.908440000000976 118.8715750000002
    vertex 33.913656448811004 16.84980000000109 118.87157500000023
  endloop
endfacet
facet normal 1.0 -3.286027807701458e-14 7.715366573318571e-16
  outer loop
    vertex 33.91365644881103 17.908440000000976 118.8715750000002
    vertex 33.91365644881096 16.84980000000098 1.911575000000016
    vertex 33.913656448811004 17.908440000000954 1.911575000000016
  endloop
endfacet
facet normal -1.0 -3.1340665480062076e-15 -8.851234010019022e-16
  outer loop
    vertex 31.4536564488111 8.042963116951857 62.95543646078533
    vertex 31.4536564488111 8.042963116951654 57.82771353921418
    vertex 31.4536564488111 7.998408000000946 60.391574999999754
  endloop
endfacet
facet normal -1.0 -3.1340665480062076e-15 -8.851234010019022e-16
  outer loop
    vertex 31.4536564488111 8.042963116951654 57.82771353921418
    vertex 31.4536564488111 8.042963116951857 62.95543646078533
    vertex 31.453656448810985 8.173592110215587 55.43857499999976
  endloop
endfacet
facet normal -1.0 -3.1340665480062076e-15 -8.851234010019022e-16
  outer loop
    vertex 31.453656448810985 8.173592110215587 55.43857499999976
    vertex 31.4536564488111 8.042963116951857 62.95543646078533
    vertex 31.453656448810985 8.173592110215566 65.34457499999976
  endloop
endfacet
facet normal -1.0 -3.1340665480062076e-15 -8.851234010019022e-16
  outer loop
    vertex 31.453656448810985 8.173592110215587 55.43857499999976
    vertex 31.453656448810985 8.173592110215566 65.34457499999976
    vertex 31.453656448811074 8.381392829775848 67.39617477443369
  endloop
endfacet
facet normal -1.0 -3.1340665480062076e-15 -8.851234010019022e-16
  outer loop
    vertex 31.453656448810985 8.173592110215587 55.43857499999976
    vertex 31.453656448811074 8.381392829775848 67.39617477443369
    vertex 31.45365644881096 8.381392829775848 53.38697522556581
  endloop
endfacet
facet normal -1.0 -3.1340665480062076e-15 -8.851234010019022e-16
  outer loop
    vertex 31.45365644881096 8.381392829775848 53.38697522556581
    vertex 31.453656448811074 8.381392829775848 67.39617477443369
    vertex 31.453656448811074 8.652204000000854 68.97042264988839
  endloop
endfacet
facet normal -1.0 -3.1340665480062076e-15 -8.851234010019022e-16
  outer loop
    vertex 31.45365644881096 8.381392829775848 53.38697522556581
    vertex 31.453656448811074 8.652204000000854 68.97042264988839
    vertex 31.45365644881114 8.652204000000854 51.81272735011108
  endloop
endfacet
facet normal -1.0 -3.1340665480062076e-15 -8.851234010019022e-16
  outer loop
    vertex 31.45365644881114 8.652204000000854 51.81272735011108
    vertex 31.453656448811074 8.652204000000854 68.97042264988839
    vertex 31.453656448811074 8.967570287177287 69.96003623521925
  endloop
endfacet
facet normal -1.0 -3.1340665480062076e-15 -8.851234010019022e-16
  outer loop
    vertex 31.45365644881114 8.652204000000854 51.81272735011108
    vertex 31.453656448811074 8.967570287177287 69.96003623521925
    vertex 31.45365644881112 8.967570287177287 50.823113764780224
  endloop
endfacet
facet normal -1.0 -3.1340665480062076e-15 -8.851234010019022e-16
  outer loop
    vertex 31.45365644881112 8.967570287177287 50.823113764780224
    vertex 31.453656448811074 8.967570287177287 69.96003623521925
    vertex 31.4536564488111 9.30600000000103 70.29757499999974
  endloop
endfacet
facet normal -1.0 -3.1340665480062076e-15 -8.851234010019022e-16
  outer loop
    vertex 31.45365644881112 8.967570287177287 50.823113764780224
    vertex 31.4536564488111 9.30600000000103 70.29757499999974
    vertex 31.45365644881114 9.306000000001008 50.48557499999996
  endloop
endfacet
facet normal -1.0 -3.1340665480062076e-15 -8.851234010019022e-16
  outer loop
    vertex 31.45365644881114 9.306000000001008 50.48557499999996
    vertex 31.4536564488111 9.30600000000103 70.29757499999974
    vertex 31.45365644881112 9.644429712824772 69.96003623521922
  endloop
endfacet
facet normal -1.0 -3.1340665480062076e-15 -8.851234010019022e-16
  outer loop
    vertex 31.45365644881114 9.306000000001008 50.48557499999996
    vertex 31.45365644881112 9.644429712824772 69.96003623521922
    vertex 31.45365644881114 9.644429712824772 50.8231137647802
  endloop
endfacet
facet normal -1.0 -3.1340665480062076e-15 -8.851234010019022e-16
  outer loop
    vertex 31.45365644881114 9.644429712824772 50.8231137647802
    vertex 31.45365644881112 9.644429712824772 69.96003623521922
    vertex 31.45365644881112 9.959796000001027 68.97042264988836
  endloop
endfacet
facet normal -1.0 -3.1340665480062076e-15 -8.851234010019022e-16
  outer loop
    vertex 31.45365644881114 9.644429712824772 50.8231137647802
    vertex 31.45365644881112 9.959796000001027 68.97042264988836
    vertex 31.45365644881114 9.959796000001027 51.81272735011106
  endloop
endfacet
facet normal -1.0 -3.1340665480062076e-15 -8.851234010019022e-16
  outer loop
    vertex 31.45365644881114 9.959796000001027 51.81272735011106
    vertex 31.45365644881112 9.959796000001027 68.97042264988836
    vertex 31.45365644881112 10.230607170226302 67.39617477443365
  endloop
endfacet
facet normal -1.0 -3.1340665480062076e-15 -8.851234010019022e-16
  outer loop
    vertex 31.45365644881114 9.959796000001027 51.81272735011106
    vertex 31.45365644881112 10.230607170226302 67.39617477443365
    vertex 31.453656448810985 10.230607170226302 53.38697522556577
  endloop
endfacet
facet normal -1.0 -3.1340665480062076e-15 -8.851234010019022e-16
  outer loop
    vertex 31.453656448810985 10.230607170226302 53.38697522556577
    vertex 31.45365644881112 10.230607170226302 67.39617477443365
    vertex 31.453656448811074 10.438407889786179 65.34457499999971
  endloop
endfacet
facet normal -1.0 -3.1340665480062076e-15 -8.851234010019022e-16
  outer loop
    vertex 31.453656448810985 10.230607170226302 53.38697522556577
    vertex 31.453656448811074 10.438407889786179 65.34457499999971
    vertex 31.453656448810985 10.438407889786202 55.4385749999997
  endloop
endfacet
facet normal -1.0 -3.1340665480062076e-15 -8.851234010019022e-16
  outer loop
    vertex 31.453656448810985 10.438407889786202 55.4385749999997
    vertex 31.453656448811074 10.438407889786179 65.34457499999971
    vertex 31.453656448811074 10.569036883049977 62.95543646078527
  endloop
endfacet
facet normal -1.0 -3.1340665480062076e-15 -8.851234010019022e-16
  outer loop
    vertex 31.453656448810985 10.438407889786202 55.4385749999997
    vertex 31.453656448811074 10.569036883049977 62.95543646078527
    vertex 31.45365644881096 10.569036883049774 57.82771353921413
  endloop
endfacet
facet normal -1.0 -3.1340665480062076e-15 -8.851234010019022e-16
  outer loop
    vertex 31.45365644881096 10.569036883049774 57.82771353921413
    vertex 31.453656448811074 10.569036883049977 62.95543646078527
    vertex 31.453656448811074 10.613592000001114 60.391574999999705
  endloop
endfacet
facet normal 8.326672684688255e-17 -1.0 2.8107315853090035e-15
  outer loop
    vertex 33.91365644881119 8.703740000000547 18.954043000000134
    vertex 154.0636564488111 8.703740000000849 123.04844300000022
    vertex 33.913656448811096 8.703740000000838 123.0484430000001
  endloop
endfacet
facet normal 8.326672684688255e-17 -1.0 2.8107315853090035e-15
  outer loop
    vertex 154.0636564488111 8.703740000000849 123.04844300000022
    vertex 33.91365644881119 8.703740000000547 18.954043000000134
    vertex 154.0636564488112 8.703740000000556 18.954043000000244
  endloop
endfacet
facet normal -8.326672684688255e-17 1.0 -2.8107315853090035e-15
  outer loop
    vertex 154.0636564488112 10.261240000000562 18.954043000000244
    vertex 33.913656448811096 10.261240000000846 123.0484430000001
    vertex 154.0636564488111 10.261240000000855 123.04844300000022
  endloop
endfacet
facet normal -8.326672684688255e-17 1.0 -2.8107315853090035e-15
  outer loop
    vertex 33.913656448811096 10.261240000000846 123.0484430000001
    vertex 154.0636564488112 10.261240000000562 18.954043000000244
    vertex 33.91365644881119 10.261240000000553 18.954043000000134
  endloop
endfacet
facet normal 7.471076978671946e-16 -2.8107315853090074e-15 -1.0
  outer loop
    vertex 33.91365644881119 8.703740000000547 18.954043000000134
    vertex 154.0636564488112 10.261240000000562 18.954043000000244
    vertex 154.0636564488112 8.703740000000556 18.954043000000244
  endloop
endfacet
facet normal 7.471076978671946e-16 -2.8107315853090074e-15 -1.0
  outer loop
    vertex 154.0636564488112 10.261240000000562 18.954043000000244
    vertex 33.91365644881119 8.703740000000547 18.954043000000134
    vertex 33.91365644881119 10.261240000000553 18.954043000000134
  endloop
endfacet
facet normal -1.0 -8.326672684688659e-17 -8.863309258379625e-16
  outer loop
    vertex 33.913656448811096 10.261240000000846 123.0484430000001
    vertex 33.91365644881119 8.703740000000547 18.954043000000134
    vertex 33.913656448811096 8.703740000000838 123.0484430000001
  endloop
endfacet
facet normal -1.0 -8.326672684688659e-17 -8.863309258379625e-16
  outer loop
    vertex 33.91365644881119 8.703740000000547 18.954043000000134
    vertex 33.913656448811096 10.261240000000846 123.0484430000001
    vertex 33.91365644881119 10.261240000000553 18.954043000000134
  endloop
endfacet
facet normal -8.863309258379621e-16 2.8107315853090074e-15 1.0
  outer loop
    vertex 33.913656448811096 10.261240000000846 123.0484430000001
    vertex 154.0636564488111 8.703740000000849 123.04844300000022
    vertex 154.0636564488111 10.261240000000855 123.04844300000022
  endloop
endfacet
facet normal -8.863309258379621e-16 2.8107315853090074e-15 1.0
  outer loop
    vertex 154.0636564488111 8.703740000000849 123.04844300000022
    vertex 33.913656448811096 10.261240000000846 123.0484430000001
    vertex 33.913656448811096 8.703740000000838 123.0484430000001
  endloop
endfacet
facet normal 1.0 8.326672684688659e-17 8.863309258379625e-16
  outer loop
    vertex 154.0636564488112 10.261240000000562 18.954043000000244
    vertex 154.0636564488111 8.703740000000849 123.04844300000022
    vertex 154.0636564488112 8.703740000000556 18.954043000000244
  endloop
endfacet
facet normal 1.0 8.326672684688659e-17 8.863309258379625e-16
  outer loop
    vertex 154.0636564488111 8.703740000000849 123.04844300000022
    vertex 154.0636564488112 10.261240000000562 18.954043000000244
    vertex 154.0636564488111 10.261240000000855 123.04844300000022
  endloop
endfacet
facet normal 1.0 -2.5136575580799472e-15 9.55977720865801e-16
  outer loop
    vertex 33.913656448811146 1.0377476655776262e-12 9.023892744153272e-14
    vertex 33.913656448811075 1.7622000000008575 1.911575000000061
    vertex 33.913656448811004 1.7622000000010494 118.87157499999944
  endloop
endfacet
facet normal 1.0 -2.5136575580799472e-15 9.55977720865801e-16
  outer loop
    vertex 33.913656448811075 1.7622000000008575 1.911575000000061
    vertex 33.913656448811146 1.0377476655776262e-12 9.023892744153272e-14
    vertex 33.91365644881123 20.907480000001005 2.255973186038318e-14
  endloop
endfacet
facet normal 1.0 -2.5136575580799472e-15 9.55977720865801e-16
  outer loop
    vertex 33.913656448811075 1.7622000000008575 1.911575000000061
    vertex 33.91365644881123 20.907480000001005 2.255973186038318e-14
    vertex 33.91365644881096 16.84980000000098 1.911575000000016
  endloop
endfacet
facet normal 1.0 -2.5136575580799472e-15 9.55977720865801e-16
  outer loop
    vertex 33.91365644881096 16.84980000000098 1.911575000000016
    vertex 33.91365644881123 20.907480000001005 2.255973186038318e-14
    vertex 33.913656448811004 17.908440000000954 1.911575000000016
  endloop
endfacet
facet normal 1.0 -2.5136575580799472e-15 9.55977720865801e-16
  outer loop
    vertex 33.913656448811004 17.908440000000954 1.911575000000016
    vertex 33.91365644881123 20.907480000001005 2.255973186038318e-14
    vertex 33.913656448811054 20.907479999999946 168.6187590000003
  endloop
endfacet
facet normal 1.0 -2.5136575580799472e-15 9.55977720865801e-16
  outer loop
    vertex 33.913656448811004 -2.255973186038318e-14 168.6187589999994
    vertex 33.913656448811004 1.7622000000010494 118.87157499999944
    vertex 33.913656448811054 20.907479999999946 168.6187590000003
  endloop
endfacet
facet normal 1.0 -2.5136575580799472e-15 9.55977720865801e-16
  outer loop
    vertex 33.913656448811004 1.7622000000010494 118.87157499999944
    vertex 33.913656448811004 -2.255973186038318e-14 168.6187589999994
    vertex 33.913656448811146 1.0377476655776262e-12 9.023892744153272e-14
  endloop
endfacet
facet normal 1.0 -2.5136575580799472e-15 9.55977720865801e-16
  outer loop
    vertex 33.913656448811054 20.907479999999946 168.6187590000003
    vertex 33.913656448811004 1.7622000000010494 118.87157499999944
    vertex 33.913656448811004 16.84980000000109 118.87157500000023
  endloop
endfacet
facet normal 1.0 -2.5136575580799472e-15 9.55977720865801e-16
  outer loop
    vertex 33.913656448811054 20.907479999999946 168.6187590000003
    vertex 33.913656448811004 16.84980000000109 118.87157500000023
    vertex 33.91365644881103 17.908440000000976 118.8715750000002
  endloop
endfacet
facet normal 1.0 -2.5136575580799472e-15 9.55977720865801e-16
  outer loop
    vertex 33.913656448811054 20.907479999999946 168.6187590000003
    vertex 33.91365644881103 17.908440000000976 118.8715750000002
    vertex 33.913656448811004 17.908440000000954 1.911575000000016
  endloop
endfacet
facet normal -8.951173136040366e-16 -1.0 -6.373184805772038e-16
  outer loop
    vertex 9.863656448811108 1.0151879337172431e-13 168.61875899999936
    vertex 33.913656448811146 1.0377476655776262e-12 9.023892744153272e-14
    vertex 33.913656448811004 -2.255973186038318e-14 168.6187589999994
  endloop
endfacet
facet normal -8.951173136040366e-16 -1.0 -6.373184805772038e-16
  outer loop
    vertex 33.913656448811146 1.0377476655776262e-12 9.023892744153272e-14
    vertex 9.863656448811108 1.0151879337172431e-13 168.61875899999936
    vertex 9.863656448811287 1.071587263368201e-12 6.767919558114953e-14
  endloop
endfacet
facet normal -1.0 4.643825591846418e-15 3.748708278242363e-15
  outer loop
    vertex 4.511946372076636e-14 11.099202285047404 161.1579325877467
    vertex 4.511946372076636e-14 8.500659072218097 161.15793258774667
    vertex 4.511946372076636e-14 9.799930678632773 161.32898493977558
  endloop
endfacet
facet normal -1.0 4.643825591846418e-15 3.748708278242363e-15
  outer loop
    vertex 4.511946372076636e-14 8.500659072218097 161.15793258774667
    vertex 4.511946372076636e-14 11.099202285047404 161.1579325877467
    vertex 4.511946372076636e-14 12.309930678632803 160.65643246677342
  endloop
endfacet
facet normal -1.0 4.643825591846418e-15 3.748708278242363e-15
  outer loop
    vertex 4.511946372076636e-14 8.500659072218097 161.15793258774667
    vertex 4.511946372076636e-14 12.309930678632803 160.65643246677342
    vertex 0.0 7.289930678632737 160.6564324667735
  endloop
endfacet
facet normal -1.0 4.643825591846418e-15 3.748708278242363e-15
  outer loop
    vertex 0.0 7.289930678632737 160.6564324667735
    vertex 4.511946372076636e-14 12.309930678632803 160.65643246677342
    vertex 9.023892744153272e-14 6.250254637076306 159.858660981332
  endloop
endfacet
facet normal -1.0 4.643825591846418e-15 3.748708278242363e-15
  outer loop
    vertex 9.023892744153272e-14 6.250254637076306 159.858660981332
    vertex 4.511946372076636e-14 12.309930678632803 160.65643246677342
    vertex 1.3535839116229907e-13 13.349606720189229 159.858660981332
  endloop
endfacet
facet normal -1.0 4.643825591846418e-15 3.748708278242363e-15
  outer loop
    vertex 9.023892744153272e-14 6.250254637076306 159.858660981332
    vertex 1.3535839116229907e-13 13.349606720189229 159.858660981332
    vertex 1.3535839116229907e-13 14.147378205630588 158.81898493977562
  endloop
endfacet
facet normal -1.0 4.643825591846418e-15 3.748708278242363e-15
  outer loop
    vertex 9.023892744153272e-14 6.250254637076306 159.858660981332
    vertex 1.3535839116229907e-13 14.147378205630588 158.81898493977562
    vertex 4.511946372076636e-14 5.452483151634852 158.81898493977567
  endloop
endfacet
facet normal -1.0 4.643825591846418e-15 3.748708278242363e-15
  outer loop
    vertex 4.511946372076636e-14 5.452483151634852 158.81898493977567
    vertex 1.3535839116229907e-13 14.147378205630588 158.81898493977562
    vertex 4.511946372076636e-14 4.950983030661623 157.60825654619026
  endloop
endfacet
facet normal -1.0 4.643825591846418e-15 3.748708278242363e-15
  outer loop
    vertex 4.511946372076636e-14 4.950983030661623 157.60825654619026
    vertex 1.3535839116229907e-13 14.147378205630588 158.81898493977562
    vertex 1.3535839116229907e-13 14.6488783266039 157.60825654619023
  endloop
endfacet
facet normal -1.0 4.643825591846418e-15 3.748708278242363e-15
  outer loop
    vertex 4.511946372076636e-14 4.950983030661623 157.60825654619026
    vertex 1.3535839116229907e-13 14.6488783266039 157.60825654619023
    vertex 4.511946372076636e-14 4.779930678632781 156.30898493977563
  endloop
endfacet
facet normal -1.0 4.643825591846418e-15 3.748708278242363e-15
  outer loop
    vertex 4.511946372076636e-14 4.779930678632781 156.30898493977563
    vertex 1.3535839116229907e-13 14.6488783266039 157.60825654619023
    vertex 1.3535839116229907e-13 14.819930678632781 156.30898493977554
  endloop
endfacet
facet normal -1.0 4.643825591846418e-15 3.748708278242363e-15
  outer loop
    vertex 4.511946372076636e-14 4.779930678632781 156.30898493977563
    vertex 1.3535839116229907e-13 14.819930678632781 156.30898493977554
    vertex 4.511946372076636e-14 4.950983030661663 155.00971333336096
  endloop
endfacet
facet normal -1.0 4.643825591846418e-15 3.748708278242363e-15
  outer loop
    vertex 4.511946372076636e-14 4.950983030661663 155.00971333336096
    vertex 1.3535839116229907e-13 14.819930678632781 156.30898493977554
    vertex 1.3535839116229907e-13 14.648878326603803 155.009713333361
  endloop
endfacet
facet normal -1.0 4.643825591846418e-15 3.748708278242363e-15
  outer loop
    vertex 4.511946372076636e-14 4.950983030661663 155.00971333336096
    vertex 1.3535839116229907e-13 14.648878326603803 155.009713333361
    vertex 9.023892744153272e-14 14.147378205630575 153.79898493977566
  endloop
endfacet
facet normal -1.0 4.643825591846418e-15 3.748708278242363e-15
  outer loop
    vertex 4.511946372076636e-14 4.950983030661663 155.00971333336096
    vertex 9.023892744153272e-14 14.147378205630575 153.79898493977566
    vertex 4.511946372076636e-14 5.4524831516347945 153.79898493977572
  endloop
endfacet
facet normal -1.0 4.643825591846418e-15 3.748708278242363e-15
  outer loop
    vertex 4.511946372076636e-14 5.4524831516347945 153.79898493977572
    vertex 9.023892744153272e-14 14.147378205630575 153.79898493977566
    vertex 4.511946372076636e-14 6.250254637076243 152.75930889821913
  endloop
endfacet
facet normal -1.0 4.643825591846418e-15 3.748708278242363e-15
  outer loop
    vertex 4.511946372076636e-14 6.250254637076243 152.75930889821913
    vertex 9.023892744153272e-14 14.147378205630575 153.79898493977566
    vertex 9.023892744153272e-14 13.349606720189167 152.75930889821913
  endloop
endfacet
facet normal -1.0 4.643825591846418e-15 3.748708278242363e-15
  outer loop
    vertex 4.511946372076636e-14 6.250254637076243 152.75930889821913
    vertex 9.023892744153272e-14 13.349606720189167 152.75930889821913
    vertex 9.023892744153272e-14 12.309930678632691 151.96153741277772
  endloop
endfacet
facet normal -1.0 4.643825591846418e-15 3.748708278242363e-15
  outer loop
    vertex 4.511946372076636e-14 6.250254637076243 152.75930889821913
    vertex 9.023892744153272e-14 12.309930678632691 151.96153741277772
    vertex 4.511946372076636e-14 7.289930678632668 151.96153741277772
  endloop
endfacet
facet normal -1.0 4.643825591846418e-15 3.748708278242363e-15
  outer loop
    vertex 4.511946372076636e-14 7.289930678632668 151.96153741277772
    vertex 9.023892744153272e-14 12.309930678632691 151.96153741277772
    vertex 4.511946372076636e-14 11.099202285047378 151.46003729180447
  endloop
endfacet
facet normal -1.0 4.643825591846418e-15 3.748708278242363e-15
  outer loop
    vertex 4.511946372076636e-14 7.289930678632668 151.96153741277772
    vertex 4.511946372076636e-14 11.099202285047378 151.46003729180447
    vertex 4.511946372076636e-14 8.500659072218072 151.46003729180444
  endloop
endfacet
facet normal -1.0 4.643825591846418e-15 3.748708278242363e-15
  outer loop
    vertex 4.511946372076636e-14 8.500659072218072 151.46003729180444
    vertex 4.511946372076636e-14 11.099202285047378 151.46003729180447
    vertex 4.511946372076636e-14 9.799930678632702 151.28898493977556
  endloop
endfacet
facet normal 1.0 -8.951173136040654e-16 -4.552479006784641e-15
  outer loop
    vertex 215.25196744881106 8.500659072218115 161.15793258774684
    vertex 215.25196744881106 11.099202285047376 161.15793258774687
    vertex 215.25196744881106 9.799930678632744 161.3289849397757
  endloop
endfacet
facet normal 1.0 -8.951173136040654e-16 -4.552479006784641e-15
  outer loop
    vertex 215.25196744881106 11.099202285047376 161.15793258774687
    vertex 215.25196744881106 8.500659072218115 161.15793258774684
    vertex 215.25196744881114 12.309930678632776 160.65643246677357
  endloop
endfacet
facet normal 1.0 -8.951173136040654e-16 -4.552479006784641e-15
  outer loop
    vertex 215.25196744881114 12.309930678632776 160.65643246677357
    vertex 215.25196744881106 8.500659072218115 161.15793258774684
    vertex 215.25196744881111 7.289930678632709 160.65643246677374
  endloop
endfacet
facet normal 1.0 -8.951173136040654e-16 -4.552479006784641e-15
  outer loop
    vertex 215.25196744881114 12.309930678632776 160.65643246677357
    vertex 215.25196744881111 7.289930678632709 160.65643246677374
    vertex 215.25196744881111 6.250254637076234 159.85866098133226
  endloop
endfacet
facet normal 1.0 -8.951173136040654e-16 -4.552479006784641e-15
  outer loop
    vertex 215.25196744881114 12.309930678632776 160.65643246677357
    vertex 215.25196744881111 6.250254637076234 159.85866098133226
    vertex 215.2519674488112 13.34960672018916 159.8586609813322
  endloop
endfacet
facet normal 1.0 -8.951173136040654e-16 -4.552479006784641e-15
  outer loop
    vertex 215.2519674488112 13.34960672018916 159.8586609813322
    vertex 215.25196744881111 6.250254637076234 159.85866098133226
    vertex 215.25196744881111 5.452483151634781 158.81898493977585
  endloop
endfacet
facet normal 1.0 -8.951173136040654e-16 -4.552479006784641e-15
  outer loop
    vertex 215.2519674488112 13.34960672018916 159.8586609813322
    vertex 215.25196744881111 5.452483151634781 158.81898493977585
    vertex 215.2519674488112 14.147378205630561 158.81898493977582
  endloop
endfacet
facet normal 1.0 -8.951173136040654e-16 -4.552479006784641e-15
  outer loop
    vertex 215.2519674488112 14.147378205630561 158.81898493977582
    vertex 215.25196744881111 5.452483151634781 158.81898493977585
    vertex 215.25196744881111 4.950983030661597 157.60825654619046
  endloop
endfacet
facet normal 1.0 -8.951173136040654e-16 -4.552479006784641e-15
  outer loop
    vertex 215.2519674488112 14.147378205630561 158.81898493977582
    vertex 215.25196744881111 4.950983030661597 157.60825654619046
    vertex 215.2519674488112 14.648878326603874 157.6082565461904
  endloop
endfacet
facet normal 1.0 -8.951173136040654e-16 -4.552479006784641e-15
  outer loop
    vertex 215.2519674488112 14.648878326603874 157.6082565461904
    vertex 215.25196744881111 4.950983030661597 157.60825654619046
    vertex 215.25196744881111 4.779930678632755 156.30898493977583
  endloop
endfacet
facet normal 1.0 -8.951173136040654e-16 -4.552479006784641e-15
  outer loop
    vertex 215.2519674488112 14.648878326603874 157.6082565461904
    vertex 215.25196744881111 4.779930678632755 156.30898493977583
    vertex 215.2519674488112 14.819930678632756 156.30898493977574
  endloop
endfacet
facet normal 1.0 -8.951173136040654e-16 -4.552479006784641e-15
  outer loop
    vertex 215.2519674488112 14.819930678632756 156.30898493977574
    vertex 215.25196744881111 4.779930678632755 156.30898493977583
    vertex 215.25196744881111 4.950983030661637 155.00971333336113
  endloop
endfacet
facet normal 1.0 -8.951173136040654e-16 -4.552479006784641e-15
  outer loop
    vertex 215.2519674488112 14.819930678632756 156.30898493977574
    vertex 215.25196744881111 4.950983030661637 155.00971333336113
    vertex 215.2519674488112 14.648878326603821 155.00971333336116
  endloop
endfacet
facet normal 1.0 -8.951173136040654e-16 -4.552479006784641e-15
  outer loop
    vertex 215.2519674488112 14.648878326603821 155.00971333336116
    vertex 215.25196744881111 4.950983030661637 155.00971333336113
    vertex 215.2519674488112 14.147378205630593 153.79898493977586
  endloop
endfacet
facet normal 1.0 -8.951173136040654e-16 -4.552479006784641e-15
  outer loop
    vertex 215.2519674488112 14.147378205630593 153.79898493977586
    vertex 215.25196744881111 4.950983030661637 155.00971333336113
    vertex 215.25196744881111 5.452483151634768 153.79898493977592
  endloop
endfacet
facet normal 1.0 -8.951173136040654e-16 -4.552479006784641e-15
  outer loop
    vertex 215.2519674488112 14.147378205630593 153.79898493977586
    vertex 215.25196744881111 5.452483151634768 153.79898493977592
    vertex 215.25196744881106 6.250254637076217 152.75930889821933
  endloop
endfacet
facet normal 1.0 -8.951173136040654e-16 -4.552479006784641e-15
  outer loop
    vertex 215.2519674488112 14.147378205630593 153.79898493977586
    vertex 215.25196744881106 6.250254637076217 152.75930889821933
    vertex 215.25196744881114 13.349606720189184 152.75930889821933
  endloop
endfacet
facet normal 1.0 -8.951173136040654e-16 -4.552479006784641e-15
  outer loop
    vertex 215.25196744881114 13.349606720189184 152.75930889821933
    vertex 215.25196744881106 6.250254637076217 152.75930889821933
    vertex 215.25196744881114 12.309930678632664 151.96153741277786
  endloop
endfacet
facet normal 1.0 -8.951173136040654e-16 -4.552479006784641e-15
  outer loop
    vertex 215.25196744881114 12.309930678632664 151.96153741277786
    vertex 215.25196744881106 6.250254637076217 152.75930889821933
    vertex 215.25196744881106 7.289930678632642 151.96153741277794
  endloop
endfacet
facet normal 1.0 -8.951173136040654e-16 -4.552479006784641e-15
  outer loop
    vertex 215.25196744881114 12.309930678632664 151.96153741277786
    vertex 215.25196744881106 7.289930678632642 151.96153741277794
    vertex 215.25196744881106 8.500659072218044 151.4600372918046
  endloop
endfacet
facet normal 1.0 -8.951173136040654e-16 -4.552479006784641e-15
  outer loop
    vertex 215.25196744881114 12.309930678632664 151.96153741277786
    vertex 215.25196744881106 8.500659072218044 151.4600372918046
    vertex 215.25196744881106 11.09920228504735 151.46003729180458
  endloop
endfacet
facet normal 1.0 -8.951173136040654e-16 -4.552479006784641e-15
  outer loop
    vertex 215.25196744881106 11.09920228504735 151.46003729180458
    vertex 215.25196744881106 8.500659072218044 151.4600372918046
    vertex 215.25196744881106 9.799930678632673 151.28898493977576
  endloop
endfacet
facet normal 4.529921162566639e-16 0.793353340291252 -0.6087614290086987
  outer loop
    vertex 215.25196744881114 13.349606720189184 152.75930889821933
    vertex 9.023892744153272e-14 14.147378205630575 153.79898493977566
    vertex 215.2519674488112 14.147378205630593 153.79898493977586
  endloop
endfacet
facet normal 4.529921162566639e-16 0.793353340291252 -0.6087614290086987
  outer loop
    vertex 9.023892744153272e-14 14.147378205630575 153.79898493977566
    vertex 215.25196744881114 13.349606720189184 152.75930889821933
    vertex 9.023892744153272e-14 13.349606720189167 152.75930889821913
  endloop
endfacet
facet normal -7.187484147732588e-16 -0.6087614290087562 0.7933533402912081
  outer loop
    vertex 9.023892744153272e-14 6.250254637076306 159.858660981332
    vertex 215.25196744881111 7.289930678632709 160.65643246677374
    vertex 0.0 7.289930678632737 160.6564324667735
  endloop
endfacet
facet normal -7.187484147732588e-16 -0.6087614290087562 0.7933533402912081
  outer loop
    vertex 215.25196744881111 7.289930678632709 160.65643246677374
    vertex 9.023892744153272e-14 6.250254637076306 159.858660981332
    vertex 215.25196744881111 6.250254637076234 159.85866098133226
  endloop
endfacet
facet normal -5.874038049092762e-16 -0.7933533402912003 0.6087614290087661
  outer loop
    vertex 9.023892744153272e-14 6.250254637076306 159.858660981332
    vertex 215.25196744881111 5.452483151634781 158.81898493977585
    vertex 215.25196744881111 6.250254637076234 159.85866098133226
  endloop
endfacet
facet normal -5.874038049092762e-16 -0.7933533402912003 0.6087614290087661
  outer loop
    vertex 215.25196744881111 5.452483151634781 158.81898493977585
    vertex 9.023892744153272e-14 6.250254637076306 159.858660981332
    vertex 4.511946372076636e-14 5.452483151634852 158.81898493977567
  endloop
endfacet
facet normal -9.031780669255741e-16 0.130526192220034 0.9914448613738127
  outer loop
    vertex 4.511946372076636e-14 9.799930678632773 161.32898493977558
    vertex 215.25196744881106 11.099202285047376 161.15793258774687
    vertex 4.511946372076636e-14 11.099202285047404 161.1579325877467
  endloop
endfacet
facet normal -9.031780669255741e-16 0.130526192220034 0.9914448613738127
  outer loop
    vertex 215.25196744881106 11.099202285047376 161.15793258774687
    vertex 4.511946372076636e-14 9.799930678632773 161.32898493977558
    vertex 215.25196744881106 9.799930678632744 161.3289849397757
  endloop
endfacet
facet normal 1.9958810522148727e-16 0.9238795325112888 -0.3826834323650852
  outer loop
    vertex 9.023892744153272e-14 14.147378205630575 153.79898493977566
    vertex 215.2519674488112 14.648878326603821 155.00971333336116
    vertex 215.2519674488112 14.147378205630593 153.79898493977586
  endloop
endfacet
facet normal 1.9958810522148727e-16 0.9238795325112888 -0.3826834323650852
  outer loop
    vertex 215.2519674488112 14.648878326603821 155.00971333336116
    vertex 9.023892744153272e-14 14.147378205630575 153.79898493977566
    vertex 1.3535839116229907e-13 14.648878326603803 155.009713333361
  endloop
endfacet
facet normal 8.013373867691558e-16 -0.3826834323651299 -0.9238795325112701
  outer loop
    vertex 215.25196744881106 8.500659072218044 151.4600372918046
    vertex 4.511946372076636e-14 7.289930678632668 151.96153741277772
    vertex 4.511946372076636e-14 8.500659072218072 151.46003729180444
  endloop
endfacet
facet normal 8.013373867691558e-16 -0.3826834323651299 -0.9238795325112701
  outer loop
    vertex 4.511946372076636e-14 7.289930678632668 151.96153741277772
    vertex 215.25196744881106 8.500659072218044 151.4600372918046
    vertex 215.25196744881106 7.289930678632642 151.96153741277794
  endloop
endfacet
facet normal -6.123255657423185e-16 0.7933533402912285 0.6087614290087293
  outer loop
    vertex 1.3535839116229907e-13 14.147378205630588 158.81898493977562
    vertex 215.2519674488112 13.34960672018916 159.8586609813322
    vertex 215.2519674488112 14.147378205630561 158.81898493977582
  endloop
endfacet
facet normal -6.123255657423185e-16 0.7933533402912285 0.6087614290087293
  outer loop
    vertex 215.2519674488112 13.34960672018916 159.8586609813322
    vertex 1.3535839116229907e-13 14.147378205630588 158.81898493977562
    vertex 1.3535839116229907e-13 13.349606720189229 159.858660981332
  endloop
endfacet
facet normal -9.300428167645835e-16 0.38268343236510793 0.9238795325112793
  outer loop
    vertex 4.511946372076636e-14 11.099202285047404 161.1579325877467
    vertex 215.25196744881114 12.309930678632776 160.65643246677357
    vertex 4.511946372076636e-14 12.309930678632803 160.65643246677342
  endloop
endfacet
facet normal -9.300428167645835e-16 0.38268343236510793 0.9238795325112793
  outer loop
    vertex 215.25196744881114 12.309930678632776 160.65643246677357
    vertex 4.511946372076636e-14 11.099202285047404 161.1579325877467
    vertex 215.25196744881106 11.099202285047376 161.15793258774687
  endloop
endfacet
facet normal -2.964860316441647e-16 -0.9238795325113025 0.38268343236505226
  outer loop
    vertex 4.511946372076636e-14 5.452483151634852 158.81898493977567
    vertex 215.25196744881111 4.950983030661597 157.60825654619046
    vertex 215.25196744881111 5.452483151634781 158.81898493977585
  endloop
endfacet
facet normal -2.964860316441647e-16 -0.9238795325113025 0.38268343236505226
  outer loop
    vertex 215.25196744881111 4.950983030661597 157.60825654619046
    vertex 4.511946372076636e-14 5.452483151634852 158.81898493977567
    vertex 4.511946372076636e-14 4.950983030661623 157.60825654619026
  endloop
endfacet
facet normal -2.610667796171342e-16 0.9914448613738098 0.1305261922200572
  outer loop
    vertex 1.3535839116229907e-13 14.819930678632781 156.30898493977554
    vertex 215.2519674488112 14.648878326603874 157.6082565461904
    vertex 215.2519674488112 14.819930678632756 156.30898493977574
  endloop
endfacet
facet normal -2.610667796171342e-16 0.9914448613738098 0.1305261922200572
  outer loop
    vertex 215.2519674488112 14.648878326603874 157.6082565461904
    vertex 1.3535839116229907e-13 14.819930678632781 156.30898493977554
    vertex 1.3535839116229907e-13 14.6488783266039 157.60825654619023
  endloop
endfacet
facet normal -8.113406648152109e-16 -0.1305261922200719 0.9914448613738079
  outer loop
    vertex 4.511946372076636e-14 8.500659072218097 161.15793258774667
    vertex 215.25196744881106 9.799930678632744 161.3289849397757
    vertex 4.511946372076636e-14 9.799930678632773 161.32898493977558
  endloop
endfacet
facet normal -8.113406648152109e-16 -0.1305261922200719 0.9914448613738079
  outer loop
    vertex 215.25196744881106 9.799930678632744 161.3289849397757
    vertex 4.511946372076636e-14 8.500659072218097 161.15793258774667
    vertex 215.25196744881106 8.500659072218115 161.15793258774684
  endloop
endfacet
facet normal 2.6109200228873216e-16 -0.99144486137381 -0.130526192220055
  outer loop
    vertex 4.511946372076636e-14 4.779930678632781 156.30898493977563
    vertex 215.25196744881111 4.950983030661637 155.00971333336113
    vertex 215.25196744881111 4.779930678632755 156.30898493977583
  endloop
endfacet
facet normal 2.6109200228873216e-16 -0.99144486137381 -0.130526192220055
  outer loop
    vertex 215.25196744881111 4.950983030661637 155.00971333336113
    vertex 4.511946372076636e-14 4.779930678632781 156.30898493977563
    vertex 4.511946372076636e-14 4.950983030661663 155.00971333336096
  endloop
endfacet
facet normal 4.97247149476961e-16 -0.7933533402912514 -0.6087614290086995
  outer loop
    vertex 4.511946372076636e-14 5.4524831516347945 153.79898493977572
    vertex 215.25196744881106 6.250254637076217 152.75930889821933
    vertex 215.25196744881111 5.452483151634768 153.79898493977592
  endloop
endfacet
facet normal 4.97247149476961e-16 -0.7933533402912514 -0.6087614290086995
  outer loop
    vertex 215.25196744881106 6.250254637076217 152.75930889821933
    vertex 4.511946372076636e-14 5.4524831516347945 153.79898493977572
    vertex 4.511946372076636e-14 6.250254637076243 152.75930889821913
  endloop
endfacet
facet normal -4.822662048201899e-16 0.923879532511272 0.38268343236512564
  outer loop
    vertex 1.3535839116229907e-13 14.6488783266039 157.60825654619023
    vertex 215.2519674488112 14.147378205630561 158.81898493977582
    vertex 215.2519674488112 14.648878326603874 157.6082565461904
  endloop
endfacet
facet normal -4.822662048201899e-16 0.923879532511272 0.38268343236512564
  outer loop
    vertex 215.2519674488112 14.147378205630561 158.81898493977582
    vertex 1.3535839116229907e-13 14.6488783266039 157.60825654619023
    vertex 1.3535839116229907e-13 14.147378205630588 158.81898493977562
  endloop
endfacet
facet normal -7.775569814825363e-16 0.6087614290087402 0.7933533402912202
  outer loop
    vertex 4.511946372076636e-14 12.309930678632803 160.65643246677342
    vertex 215.2519674488112 13.34960672018916 159.8586609813322
    vertex 1.3535839116229907e-13 13.349606720189229 159.858660981332
  endloop
endfacet
facet normal -7.775569814825363e-16 0.6087614290087402 0.7933533402912202
  outer loop
    vertex 215.2519674488112 13.34960672018916 159.8586609813322
    vertex 4.511946372076636e-14 12.309930678632803 160.65643246677342
    vertex 215.25196744881114 12.309930678632776 160.65643246677357
  endloop
endfacet
facet normal 3.5349091463292595e-17 -0.991444861373814 0.13052619222002446
  outer loop
    vertex 4.511946372076636e-14 4.950983030661623 157.60825654619026
    vertex 215.25196744881111 4.779930678632755 156.30898493977583
    vertex 215.25196744881111 4.950983030661597 157.60825654619046
  endloop
endfacet
facet normal 3.5349091463292595e-17 -0.991444861373814 0.13052619222002446
  outer loop
    vertex 215.25196744881111 4.779930678632755 156.30898493977583
    vertex 4.511946372076636e-14 4.950983030661623 157.60825654619026
    vertex 4.511946372076636e-14 4.779930678632781 156.30898493977563
  endloop
endfacet
facet normal -4.220965813859428e-17 0.9914448613738044 -0.13052619222009773
  outer loop
    vertex 1.3535839116229907e-13 14.648878326603803 155.009713333361
    vertex 215.2519674488112 14.819930678632756 156.30898493977574
    vertex 215.2519674488112 14.648878326603821 155.00971333336116
  endloop
endfacet
facet normal -4.220965813859428e-17 0.9914448613738044 -0.13052619222009773
  outer loop
    vertex 215.2519674488112 14.819930678632756 156.30898493977574
    vertex 1.3535839116229907e-13 14.648878326603803 155.009713333361
    vertex 1.3535839116229907e-13 14.819930678632781 156.30898493977554
  endloop
endfacet
facet normal 3.8532495999917476e-16 -0.9238795325112967 -0.38268343236506547
  outer loop
    vertex 4.511946372076636e-14 4.950983030661663 155.00971333336096
    vertex 215.25196744881111 5.452483151634768 153.79898493977592
    vertex 215.25196744881111 4.950983030661637 155.00971333336113
  endloop
endfacet
facet normal 3.8532495999917476e-16 -0.9238795325112967 -0.38268343236506547
  outer loop
    vertex 215.25196744881111 5.452483151634768 153.79898493977592
    vertex 4.511946372076636e-14 4.950983030661663 155.00971333336096
    vertex 4.511946372076636e-14 5.4524831516347945 153.79898493977572
  endloop
endfacet
facet normal 6.722522121435972e-16 -0.6087614290087264 -0.7933533402912307
  outer loop
    vertex 215.25196744881106 7.289930678632642 151.96153741277794
    vertex 4.511946372076636e-14 6.250254637076243 152.75930889821913
    vertex 4.511946372076636e-14 7.289930678632668 151.96153741277772
  endloop
endfacet
facet normal 6.722522121435972e-16 -0.6087614290087264 -0.7933533402912307
  outer loop
    vertex 4.511946372076636e-14 6.250254637076243 152.75930889821913
    vertex 215.25196744881106 7.289930678632642 151.96153741277794
    vertex 215.25196744881106 6.250254637076217 152.75930889821933
  endloop
endfacet
facet normal 8.75836690910513e-16 -0.13052619222005096 -0.9914448613738105
  outer loop
    vertex 215.25196744881106 9.799930678632673 151.28898493977576
    vertex 4.511946372076636e-14 8.500659072218072 151.46003729180444
    vertex 4.511946372076636e-14 9.799930678632702 151.28898493977556
  endloop
endfacet
facet normal 8.75836690910513e-16 -0.13052619222005096 -0.9914448613738105
  outer loop
    vertex 4.511946372076636e-14 8.500659072218072 151.46003729180444
    vertex 215.25196744881106 9.799930678632673 151.28898493977576
    vertex 215.25196744881106 8.500659072218044 151.4600372918046
  endloop
endfacet
facet normal 8.90650803981813e-16 0.13052619222006343 -0.9914448613738089
  outer loop
    vertex 215.25196744881106 11.09920228504735 151.46003729180458
    vertex 4.511946372076636e-14 9.799930678632702 151.28898493977556
    vertex 4.511946372076636e-14 11.099202285047378 151.46003729180447
  endloop
endfacet
facet normal 8.90650803981813e-16 0.13052619222006343 -0.9914448613738089
  outer loop
    vertex 4.511946372076636e-14 9.799930678632702 151.28898493977556
    vertex 215.25196744881106 11.09920228504735 151.46003729180458
    vertex 215.25196744881106 9.799930678632673 151.28898493977576
  endloop
endfacet
facet normal 8.447892207293469e-16 0.3826834323651103 -0.9238795325112784
  outer loop
    vertex 215.25196744881114 12.309930678632664 151.96153741277786
    vertex 4.511946372076636e-14 11.099202285047378 151.46003729180447
    vertex 9.023892744153272e-14 12.309930678632691 151.96153741277772
  endloop
endfacet
facet normal 8.447892207293469e-16 0.3826834323651103 -0.9238795325112784
  outer loop
    vertex 4.511946372076636e-14 11.099202285047378 151.46003729180447
    vertex 215.25196744881114 12.309930678632664 151.96153741277786
    vertex 215.25196744881106 11.09920228504735 151.46003729180458
  endloop
endfacet
facet normal 7.187484147732885e-16 0.6087614290087178 -0.7933533402912374
  outer loop
    vertex 215.25196744881114 12.309930678632664 151.96153741277786
    vertex 9.023892744153272e-14 13.349606720189167 152.75930889821913
    vertex 215.25196744881114 13.349606720189184 152.75930889821933
  endloop
endfacet
facet normal 7.187484147732885e-16 0.6087614290087178 -0.7933533402912374
  outer loop
    vertex 9.023892744153272e-14 13.349606720189167 152.75930889821913
    vertex 215.25196744881114 12.309930678632664 151.96153741277786
    vertex 9.023892744153272e-14 12.309930678632691 151.96153741277772
  endloop
endfacet
facet normal -7.645850438776193e-16 -0.3826834323650099 0.9238795325113198
  outer loop
    vertex 0.0 7.289930678632737 160.6564324667735
    vertex 215.25196744881106 8.500659072218115 161.15793258774684
    vertex 4.511946372076636e-14 8.500659072218097 161.15793258774667
  endloop
endfacet
facet normal -7.645850438776193e-16 -0.3826834323650099 0.9238795325113198
  outer loop
    vertex 215.25196744881106 8.500659072218115 161.15793258774684
    vertex 0.0 7.289930678632737 160.6564324667735
    vertex 215.25196744881111 7.289930678632709 160.65643246677374
  endloop
endfacet
facet normal 1.0 2.263200850072093e-16 7.71536657331846e-16
  outer loop
    vertex 33.913656448811075 1.7622000000008575 1.911575000000061
    vertex 33.913656448811004 16.84980000000109 118.87157500000023
    vertex 33.913656448811004 1.7622000000010494 118.87157499999944
  endloop
endfacet
facet normal 1.0 2.263200850072093e-16 7.71536657331846e-16
  outer loop
    vertex 33.913656448811004 16.84980000000109 118.87157500000023
    vertex 33.913656448811075 1.7622000000008575 1.911575000000061
    vertex 33.91365644881096 16.84980000000098 1.911575000000016
  endloop
endfacet
endsolid KnifePushPlate
