solid StagingArea
facet normal -0.7207738620801509 0.6931702819236147 2.4489850163361594e-33
  outer loop
    vertex 424.87669014507236 416.24314123490717 72.15000000000047
    vertex 404.1393898313344 394.6800355651578 4.737543690680468e-13
    vertex 404.1393898313344 394.6800355651578 72.15000000000047
  endloop
endfacet
facet normal -0.7207738620801509 0.6931702819236147 2.4489850163361594e-33
  outer loop
    vertex 404.1393898313344 394.6800355651578 4.737543690680468e-13
    vertex 424.87669014507236 416.24314123490717 72.15000000000047
    vertex 404.1393898313344 394.6800355651578 -22.784568999999525
  endloop
endfacet
facet normal -0.7207738620801509 0.6931702819236147 2.4489850163361594e-33
  outer loop
    vertex 404.1393898313344 394.6800355651578 -22.784568999999525
    vertex 424.87669014507236 416.24314123490717 72.15000000000047
    vertex 424.87669014507236 416.24314123490717 -22.784568999999525
  endloop
endfacet
facet normal -0.7207738620801509 0.6931702819236147 2.4489850163361594e-33
  outer loop
    vertex 424.87669014507236 416.24314123490717 -22.784568999999525
    vertex 424.87669014507236 416.24314123490717 72.15000000000047
    vertex 424.87669014507236 416.24314123490717 4.737543690680468e-13
  endloop
endfacet
facet normal -3.993902363415356e-33 -6.228504301797767e-34 1.0
  outer loop
    vertex 5.610378757931835e-28 6.31672492090729e-13 4.737543690680468e-13
    vertex 181.53588120000643 231.20698920147933 4.737543690680468e-13
    vertex 5.460215612984625e-13 610.0000000000006 4.737543690680468e-13
  endloop
endfacet
facet normal -3.993902363415356e-33 -6.228504301797767e-34 1.0
  outer loop
    vertex 181.53588120000643 231.20698920147933 4.737543690680468e-13
    vertex 5.610378757931835e-28 6.31672492090729e-13 4.737543690680468e-13
    vertex 610.0 9.023892744153272e-14 4.737543690680468e-13
  endloop
endfacet
facet normal -3.993902363415356e-33 -6.228504301797767e-34 1.0
  outer loop
    vertex 5.460215612984625e-13 610.0000000000006 4.737543690680468e-13
    vertex 181.53588120000643 231.20698920147933 4.737543690680468e-13
    vertex 181.5358812000064 361.20698940256335 0.0
  endloop
endfacet
facet normal -3.993902363415356e-33 -6.228504301797767e-34 1.0
  outer loop
    vertex 181.53588120000643 231.20698920147933 4.737543690680468e-13
    vertex 610.0 9.023892744153272e-14 4.737543690680468e-13
    vertex 323.53588070000643 231.2069892014794 4.737543690680468e-13
  endloop
endfacet
facet normal -3.993902363415356e-33 -6.228504301797767e-34 1.0
  outer loop
    vertex 323.53588070000643 231.2069892014794 4.737543690680468e-13
    vertex 610.0 9.023892744153272e-14 4.737543690680468e-13
    vertex 406.86279436794615 255.17849719739357 4.737543690680468e-13
  endloop
endfacet
facet normal -3.993902363415356e-33 -6.228504301797767e-34 1.0
  outer loop
    vertex 323.53588070000643 231.2069892014794 4.737543690680468e-13
    vertex 406.86279436794615 255.17849719739357 4.737543690680468e-13
    vertex 323.53588070000643 361.20698940256347 1.127986593019159e-13
  endloop
endfacet
facet normal -3.993902363415356e-33 -6.228504301797767e-34 1.0
  outer loop
    vertex 323.53588070000643 361.20698940256347 1.127986593019159e-13
    vertex 406.86279436794615 255.17849719739357 4.737543690680468e-13
    vertex 391.4016419717411 280.79013355683406 4.737543690680468e-13
  endloop
endfacet
facet normal -3.993902363415356e-33 -6.228504301797767e-34 1.0
  outer loop
    vertex 323.53588070000643 361.20698940256347 1.127986593019159e-13
    vertex 391.4016419717411 280.79013355683406 4.737543690680468e-13
    vertex 383.09609483411907 309.530715269313 4.737543690680468e-13
  endloop
endfacet
facet normal -3.993902363415356e-33 -6.228504301797767e-34 1.0
  outer loop
    vertex 323.53588070000643 361.20698940256347 1.127986593019159e-13
    vertex 383.09609483411907 309.530715269313 4.737543690680468e-13
    vertex 382.5121622669431 339.4416191871809 4.737543690680468e-13
  endloop
endfacet
facet normal -3.993902363415356e-33 -6.228504301797767e-34 1.0
  outer loop
    vertex 406.86279436794615 255.17849719739357 4.737543690680468e-13
    vertex 610.0 9.023892744153272e-14 4.737543690680468e-13
    vertex 428.42590003769544 234.44119688365555 4.737543690680468e-13
  endloop
endfacet
facet normal -3.993902363415356e-33 -6.228504301797767e-34 1.0
  outer loop
    vertex 428.42590003769544 234.44119688365555 4.737543690680468e-13
    vertex 610.0 9.023892744153272e-14 4.737543690680468e-13
    vertex 454.6214689643129 219.9914453619931 4.737543690680468e-13
  endloop
endfacet
facet normal -3.993902363415356e-33 -6.228504301797767e-34 1.0
  outer loop
    vertex 454.6214689643129 219.9914453619931 4.737543690680468e-13
    vertex 610.0 9.023892744153272e-14 4.737543690680468e-13
    vertex 483.66431641567266 212.8139693192645 4.737543690680468e-13
  endloop
endfacet
facet normal -3.993902363415356e-33 -6.228504301797767e-34 1.0
  outer loop
    vertex 483.66431641567266 212.8139693192645 4.737543690680468e-13
    vertex 610.0 9.023892744153272e-14 4.737543690680468e-13
    vertex 513.5752203335403 213.39790188644017 4.737543690680468e-13
  endloop
endfacet
facet normal -3.993902363415356e-33 -6.228504301797767e-34 1.0
  outer loop
    vertex 513.5752203335403 213.39790188644017 4.737543690680468e-13
    vertex 610.0 9.023892744153272e-14 4.737543690680468e-13
    vertex 542.3158020460188 221.7034490240621 4.737543690680468e-13
  endloop
endfacet
facet normal -3.993902363415356e-33 -6.228504301797767e-34 1.0
  outer loop
    vertex 542.3158020460188 221.7034490240621 4.737543690680468e-13
    vertex 610.0 9.023892744153272e-14 4.737543690680468e-13
    vertex 567.9274384054596 237.16460142026762 4.737543690680468e-13
  endloop
endfacet
facet normal -3.993902363415356e-33 -6.228504301797767e-34 1.0
  outer loop
    vertex 567.9274384054596 237.16460142026762 4.737543690680468e-13
    vertex 610.0 9.023892744153272e-14 4.737543690680468e-13
    vertex 588.6647387191974 258.72770709001645 4.737543690680468e-13
  endloop
endfacet
facet normal -3.993902363415356e-33 -6.228504301797767e-34 1.0
  outer loop
    vertex 588.6647387191974 258.72770709001645 4.737543690680468e-13
    vertex 610.0 9.023892744153272e-14 4.737543690680468e-13
    vertex 603.1144902408598 284.9232760166338 4.737543690680468e-13
  endloop
endfacet
facet normal -3.993902363415356e-33 -6.228504301797767e-34 1.0
  outer loop
    vertex 603.1144902408598 284.9232760166338 4.737543690680468e-13
    vertex 610.0 9.023892744153272e-14 4.737543690680468e-13
    vertex 610.0000000000002 312.7847148245228 4.737543690680468e-13
  endloop
endfacet
facet normal -3.993902363415356e-33 -6.228504301797767e-34 1.0
  outer loop
    vertex 181.5358812000064 361.20698940256335 0.0
    vertex 610.0000000000005 610.0 4.737543690680468e-13
    vertex 5.460215612984625e-13 610.0000000000006 4.737543690680468e-13
  endloop
endfacet
facet normal -3.993902363415356e-33 -6.228504301797767e-34 1.0
  outer loop
    vertex 610.0000000000005 610.0 4.737543690680468e-13
    vertex 181.5358812000064 361.20698940256335 0.0
    vertex 323.53588070000643 361.20698940256347 1.127986593019159e-13
  endloop
endfacet
facet normal -3.993902363415356e-33 -6.228504301797767e-34 1.0
  outer loop
    vertex 610.0000000000005 610.0 4.737543690680468e-13
    vertex 323.53588070000643 361.20698940256347 1.127986593019159e-13
    vertex 404.1393898313344 394.6800355651578 4.737543690680468e-13
  endloop
endfacet
facet normal -3.993902363415356e-33 -6.228504301797767e-34 1.0
  outer loop
    vertex 404.1393898313344 394.6800355651578 4.737543690680468e-13
    vertex 323.53588070000643 361.20698940256347 1.127986593019159e-13
    vertex 389.6896383096725 368.4844666385408 4.737543690680468e-13
  endloop
endfacet
facet normal -3.993902363415356e-33 -6.228504301797767e-34 1.0
  outer loop
    vertex 389.6896383096725 368.4844666385408 4.737543690680468e-13
    vertex 323.53588070000643 361.20698940256347 1.127986593019159e-13
    vertex 382.5121622669431 339.4416191871809 4.737543690680468e-13
  endloop
endfacet
facet normal -3.993902363415356e-33 -6.228504301797767e-34 1.0
  outer loop
    vertex 610.0000000000005 610.0 4.737543690680468e-13
    vertex 404.1393898313344 394.6800355651578 4.737543690680468e-13
    vertex 424.87669014507236 416.24314123490717 4.737543690680468e-13
  endloop
endfacet
facet normal -3.993902363415356e-33 -6.228504301797767e-34 1.0
  outer loop
    vertex 610.0000000000005 610.0 4.737543690680468e-13
    vertex 424.87669014507236 416.24314123490717 4.737543690680468e-13
    vertex 450.48832650451345 431.70429363111236 4.737543690680468e-13
  endloop
endfacet
facet normal -3.993902363415356e-33 -6.228504301797767e-34 1.0
  outer loop
    vertex 610.0000000000005 610.0 4.737543690680468e-13
    vertex 450.48832650451345 431.70429363111236 4.737543690680468e-13
    vertex 479.22890821699184 440.00984076873465 4.737543690680468e-13
  endloop
endfacet
facet normal -3.993902363415356e-33 -6.228504301797767e-34 1.0
  outer loop
    vertex 610.0000000000005 610.0 4.737543690680468e-13
    vertex 479.22890821699184 440.00984076873465 4.737543690680468e-13
    vertex 509.13981213485954 440.59377333591067 4.737543690680468e-13
  endloop
endfacet
facet normal -3.993902363415356e-33 -6.228504301797767e-34 1.0
  outer loop
    vertex 610.0000000000005 610.0 4.737543690680468e-13
    vertex 509.13981213485954 440.59377333591067 4.737543690680468e-13
    vertex 538.1826595862196 433.4162972931814 4.737543690680468e-13
  endloop
endfacet
facet normal -3.993902363415356e-33 -6.228504301797767e-34 1.0
  outer loop
    vertex 610.0000000000005 610.0 4.737543690680468e-13
    vertex 538.1826595862196 433.4162972931814 4.737543690680468e-13
    vertex 564.3782285128358 418.966545771519 4.737543690680468e-13
  endloop
endfacet
facet normal -3.993902363415356e-33 -6.228504301797767e-34 1.0
  outer loop
    vertex 610.0000000000005 610.0 4.737543690680468e-13
    vertex 564.3782285128358 418.966545771519 4.737543690680468e-13
    vertex 585.9413341825853 398.2292454577813 4.737543690680468e-13
  endloop
endfacet
facet normal -3.993902363415356e-33 -6.228504301797767e-34 1.0
  outer loop
    vertex 610.0000000000005 610.0 4.737543690680468e-13
    vertex 585.9413341825853 398.2292454577813 4.737543690680468e-13
    vertex 601.4024865787904 372.6176090983403 4.737543690680468e-13
  endloop
endfacet
facet normal -3.993902363415356e-33 -6.228504301797767e-34 1.0
  outer loop
    vertex 610.0000000000005 610.0 4.737543690680468e-13
    vertex 601.4024865787904 372.6176090983403 4.737543690680468e-13
    vertex 609.7080337164123 343.8770273858619 4.737543690680468e-13
  endloop
endfacet
facet normal -3.993902363415356e-33 -6.228504301797767e-34 1.0
  outer loop
    vertex 610.0000000000005 610.0 4.737543690680468e-13
    vertex 609.7080337164123 343.8770273858619 4.737543690680468e-13
    vertex 610.0000000000002 328.921575426928 4.737543690680468e-13
  endloop
endfacet
facet normal -0.5168084178364176 0.8561010800445348 1.8240585805890156e-33
  outer loop
    vertex 424.87669014507236 416.24314123490717 4.737543690680468e-13
    vertex 450.48832650451345 431.70429363111236 -22.784568999999525
    vertex 424.87669014507236 416.24314123490717 -22.784568999999525
  endloop
endfacet
facet normal -0.5168084178364176 0.8561010800445348 1.8240585805890156e-33
  outer loop
    vertex 450.48832650451345 431.70429363111236 -22.784568999999525
    vertex 424.87669014507236 416.24314123490717 4.737543690680468e-13
    vertex 450.48832650451345 431.70429363111236 4.737543690680468e-13
  endloop
endfacet
facet normal -0.5168084178364176 0.8561010800445348 1.8240585805890156e-33
  outer loop
    vertex 450.48832650451345 431.70429363111236 4.737543690680468e-13
    vertex 424.87669014507236 416.24314123490717 4.737543690680468e-13
    vertex 424.87669014507236 416.24314123490717 72.15000000000047
  endloop
endfacet
facet normal -0.5168084178364176 0.8561010800445348 1.8240585805890156e-33
  outer loop
    vertex 450.48832650451345 431.70429363111236 4.737543690680468e-13
    vertex 424.87669014507236 416.24314123490717 72.15000000000047
    vertex 450.48832650451345 431.70429363111236 72.15000000000047
  endloop
endfacet
facet normal -0.48300107460764186 -0.8756197587582543 1.386984276358982e-33
  outer loop
    vertex 454.6214689643129 219.9914453619931 4.737543690680468e-13
    vertex 428.42590003769544 234.44119688365555 -22.784568999999525
    vertex 454.6214689643129 219.9914453619931 -22.784568999999525
  endloop
endfacet
facet normal -0.48300107460764186 -0.8756197587582543 1.386984276358982e-33
  outer loop
    vertex 428.42590003769544 234.44119688365555 -22.784568999999525
    vertex 454.6214689643129 219.9914453619931 4.737543690680468e-13
    vertex 428.42590003769544 234.44119688365555 4.737543690680468e-13
  endloop
endfacet
facet normal -0.48300107460764186 -0.8756197587582543 1.386984276358982e-33
  outer loop
    vertex 428.42590003769544 234.44119688365555 4.737543690680468e-13
    vertex 454.6214689643129 219.9914453619931 4.737543690680468e-13
    vertex 454.6214689643129 219.9914453619931 72.15000000000047
  endloop
endfacet
facet normal -0.48300107460764186 -0.8756197587582543 1.386984276358982e-33
  outer loop
    vertex 428.42590003769544 234.44119688365555 4.737543690680468e-13
    vertex 454.6214689643129 219.9914453619931 72.15000000000047
    vertex 428.42590003769544 234.44119688365555 72.15000000000047
  endloop
endfacet
facet normal -0.23991614225417285 -0.9707936159070453 5.873325250629847e-34
  outer loop
    vertex 483.66431641567266 212.8139693192645 4.737543690680468e-13
    vertex 454.6214689643129 219.9914453619931 -22.784568999999525
    vertex 483.66431641567266 212.8139693192645 -22.784568999999525
  endloop
endfacet
facet normal -0.23991614225417285 -0.9707936159070453 5.873325250629847e-34
  outer loop
    vertex 454.6214689643129 219.9914453619931 -22.784568999999525
    vertex 483.66431641567266 212.8139693192645 4.737543690680468e-13
    vertex 454.6214689643129 219.9914453619931 4.737543690680468e-13
  endloop
endfacet
facet normal -0.23991614225417285 -0.9707936159070453 5.873325250629847e-34
  outer loop
    vertex 454.6214689643129 219.9914453619931 4.737543690680468e-13
    vertex 483.66431641567266 212.8139693192645 4.737543690680468e-13
    vertex 483.66431641567266 212.8139693192645 72.15000000000047
  endloop
endfacet
facet normal -0.23991614225417285 -0.9707936159070453 5.873325250629847e-34
  outer loop
    vertex 454.6214689643129 219.9914453619931 4.737543690680468e-13
    vertex 483.66431641567266 212.8139693192645 72.15000000000047
    vertex 454.6214689643129 219.9914453619931 72.15000000000047
  endloop
endfacet
facet normal 0.23991614225419278 0.9707936159070403 -5.873325250630497e-34
  outer loop
    vertex 509.13981213485954 440.59377333591067 4.737543690680468e-13
    vertex 538.1826595862196 433.4162972931814 -22.784568999999525
    vertex 509.13981213485954 440.59377333591067 -22.784568999999525
  endloop
endfacet
facet normal 0.23991614225419278 0.9707936159070403 -5.873325250630497e-34
  outer loop
    vertex 538.1826595862196 433.4162972931814 -22.784568999999525
    vertex 509.13981213485954 440.59377333591067 4.737543690680468e-13
    vertex 538.1826595862196 433.4162972931814 4.737543690680468e-13
  endloop
endfacet
facet normal 0.23991614225419278 0.9707936159070403 -5.873325250630497e-34
  outer loop
    vertex 538.1826595862196 433.4162972931814 4.737543690680468e-13
    vertex 509.13981213485954 440.59377333591067 4.737543690680468e-13
    vertex 509.13981213485954 440.59377333591067 72.15000000000047
  endloop
endfacet
facet normal 0.23991614225419278 0.9707936159070403 -5.873325250630497e-34
  outer loop
    vertex 538.1826595862196 433.4162972931814 4.737543690680468e-13
    vertex 509.13981213485954 440.59377333591067 72.15000000000047
    vertex 538.1826595862196 433.4162972931814 72.15000000000047
  endloop
endfacet
facet normal -0.8561010800445322 -0.5168084178364218 2.6546722031560234e-33
  outer loop
    vertex 391.4016419717411 280.79013355683406 72.15000000000047
    vertex 406.86279436794615 255.17849719739357 4.737543690680468e-13
    vertex 406.86279436794615 255.17849719739357 72.15000000000047
  endloop
endfacet
facet normal -0.8561010800445322 -0.5168084178364218 2.6546722031560234e-33
  outer loop
    vertex 406.86279436794615 255.17849719739357 4.737543690680468e-13
    vertex 391.4016419717411 280.79013355683406 72.15000000000047
    vertex 406.86279436794615 255.17849719739357 -22.784568999999525
  endloop
endfacet
facet normal -0.8561010800445322 -0.5168084178364218 2.6546722031560234e-33
  outer loop
    vertex 406.86279436794615 255.17849719739357 -22.784568999999525
    vertex 391.4016419717411 280.79013355683406 72.15000000000047
    vertex 391.4016419717411 280.79013355683406 -22.784568999999525
  endloop
endfacet
facet normal -0.8561010800445322 -0.5168084178364218 2.6546722031560234e-33
  outer loop
    vertex 391.4016419717411 280.79013355683406 -22.784568999999525
    vertex 391.4016419717411 280.79013355683406 72.15000000000047
    vertex 391.4016419717411 280.79013355683406 4.737543690680468e-13
  endloop
endfacet
facet normal -0.8756197587582576 0.4830010746076354 2.907017170359116e-33
  outer loop
    vertex 404.1393898313344 394.6800355651578 72.15000000000047
    vertex 389.6896383096725 368.4844666385408 4.737543690680468e-13
    vertex 389.6896383096725 368.4844666385408 72.15000000000047
  endloop
endfacet
facet normal -0.8756197587582576 0.4830010746076354 2.907017170359116e-33
  outer loop
    vertex 389.6896383096725 368.4844666385408 4.737543690680468e-13
    vertex 404.1393898313344 394.6800355651578 72.15000000000047
    vertex 389.6896383096725 368.4844666385408 -22.784568999999525
  endloop
endfacet
facet normal -0.8756197587582576 0.4830010746076354 2.907017170359116e-33
  outer loop
    vertex 389.6896383096725 368.4844666385408 -22.784568999999525
    vertex 404.1393898313344 394.6800355651578 72.15000000000047
    vertex 404.1393898313344 394.6800355651578 -22.784568999999525
  endloop
endfacet
facet normal -0.8756197587582576 0.4830010746076354 2.907017170359116e-33
  outer loop
    vertex 404.1393898313344 394.6800355651578 -22.784568999999525
    vertex 404.1393898313344 394.6800355651578 72.15000000000047
    vertex 404.1393898313344 394.6800355651578 4.737543690680468e-13
  endloop
endfacet
facet normal -0.9707936159070392 0.23991614225419702 3.1669409082950634e-33
  outer loop
    vertex 389.6896383096725 368.4844666385408 72.15000000000047
    vertex 382.5121622669431 339.4416191871809 4.737543690680468e-13
    vertex 382.5121622669431 339.4416191871809 72.15000000000047
  endloop
endfacet
facet normal -0.9707936159070392 0.23991614225419702 3.1669409082950634e-33
  outer loop
    vertex 382.5121622669431 339.4416191871809 4.737543690680468e-13
    vertex 389.6896383096725 368.4844666385408 72.15000000000047
    vertex 382.5121622669431 339.4416191871809 -22.784568999999525
  endloop
endfacet
facet normal -0.9707936159070392 0.23991614225419702 3.1669409082950634e-33
  outer loop
    vertex 382.5121622669431 339.4416191871809 -22.784568999999525
    vertex 389.6896383096725 368.4844666385408 72.15000000000047
    vertex 389.6896383096725 368.4844666385408 -22.784568999999525
  endloop
endfacet
facet normal -0.9707936159070392 0.23991614225419702 3.1669409082950634e-33
  outer loop
    vertex 389.6896383096725 368.4844666385408 -22.784568999999525
    vertex 389.6896383096725 368.4844666385408 72.15000000000047
    vertex 389.6896383096725 368.4844666385408 4.737543690680468e-13
  endloop
endfacet
facet normal 0.8561010800445341 0.516808417836419 -2.6546722031560295e-33
  outer loop
    vertex 585.9413341825853 398.2292454577813 -22.784568999999525
    vertex 601.4024865787904 372.6176090983403 4.737543690680468e-13
    vertex 601.4024865787904 372.6176090983403 -22.784568999999525
  endloop
endfacet
facet normal 0.8561010800445341 0.516808417836419 -2.6546722031560295e-33
  outer loop
    vertex 601.4024865787904 372.6176090983403 4.737543690680468e-13
    vertex 585.9413341825853 398.2292454577813 -22.784568999999525
    vertex 601.4024865787904 372.6176090983403 72.15000000000047
  endloop
endfacet
facet normal 0.8561010800445341 0.516808417836419 -2.6546722031560295e-33
  outer loop
    vertex 601.4024865787904 372.6176090983403 72.15000000000047
    vertex 585.9413341825853 398.2292454577813 -22.784568999999525
    vertex 585.9413341825853 398.2292454577813 72.15000000000047
  endloop
endfacet
facet normal 0.8561010800445341 0.516808417836419 -2.6546722031560295e-33
  outer loop
    vertex 585.9413341825853 398.2292454577813 72.15000000000047
    vertex 585.9413341825853 398.2292454577813 -22.784568999999525
    vertex 585.9413341825853 398.2292454577813 4.737543690680468e-13
  endloop
endfacet
facet normal -0.960690004334349 -0.27762333398341854 3.0363175413992278e-33
  outer loop
    vertex 383.09609483411907 309.530715269313 72.15000000000047
    vertex 391.4016419717411 280.79013355683406 4.737543690680468e-13
    vertex 391.4016419717411 280.79013355683406 72.15000000000047
  endloop
endfacet
facet normal -0.960690004334349 -0.27762333398341854 3.0363175413992278e-33
  outer loop
    vertex 391.4016419717411 280.79013355683406 4.737543690680468e-13
    vertex 383.09609483411907 309.530715269313 72.15000000000047
    vertex 391.4016419717411 280.79013355683406 -22.784568999999525
  endloop
endfacet
facet normal -0.960690004334349 -0.27762333398341854 3.0363175413992278e-33
  outer loop
    vertex 391.4016419717411 280.79013355683406 -22.784568999999525
    vertex 383.09609483411907 309.530715269313 72.15000000000047
    vertex 383.09609483411907 309.530715269313 -22.784568999999525
  endloop
endfacet
facet normal -0.960690004334349 -0.27762333398341854 3.0363175413992278e-33
  outer loop
    vertex 383.09609483411907 309.530715269313 -22.784568999999525
    vertex 383.09609483411907 309.530715269313 72.15000000000047
    vertex 383.09609483411907 309.530715269313 4.737543690680468e-13
  endloop
endfacet
facet normal 0.9606900043343498 0.277623333983415 -3.0363175413992312e-33
  outer loop
    vertex 601.4024865787904 372.6176090983403 -22.784568999999525
    vertex 609.7080337164123 343.8770273858619 4.737543690680468e-13
    vertex 609.7080337164123 343.8770273858619 -22.784568999999525
  endloop
endfacet
facet normal 0.9606900043343498 0.277623333983415 -3.0363175413992312e-33
  outer loop
    vertex 609.7080337164123 343.8770273858619 4.737543690680468e-13
    vertex 601.4024865787904 372.6176090983403 -22.784568999999525
    vertex 609.7080337164123 343.8770273858619 72.15000000000047
  endloop
endfacet
facet normal 0.9606900043343498 0.277623333983415 -3.0363175413992312e-33
  outer loop
    vertex 609.7080337164123 343.8770273858619 72.15000000000047
    vertex 601.4024865787904 372.6176090983403 -22.784568999999525
    vertex 601.4024865787904 372.6176090983403 72.15000000000047
  endloop
endfacet
facet normal 0.9606900043343498 0.277623333983415 -3.0363175413992312e-33
  outer loop
    vertex 601.4024865787904 372.6176090983403 72.15000000000047
    vertex 601.4024865787904 372.6176090983403 -22.784568999999525
    vertex 601.4024865787904 372.6176090983403 4.737543690680468e-13
  endloop
endfacet
facet normal -0.2776233339834317 0.9606900043343451 1.0748255669740831e-33
  outer loop
    vertex 450.48832650451345 431.70429363111236 4.737543690680468e-13
    vertex 479.22890821699184 440.00984076873465 -22.784568999999525
    vertex 450.48832650451345 431.70429363111236 -22.784568999999525
  endloop
endfacet
facet normal -0.2776233339834317 0.9606900043343451 1.0748255669740831e-33
  outer loop
    vertex 479.22890821699184 440.00984076873465 -22.784568999999525
    vertex 450.48832650451345 431.70429363111236 4.737543690680468e-13
    vertex 479.22890821699184 440.00984076873465 4.737543690680468e-13
  endloop
endfacet
facet normal -0.2776233339834317 0.9606900043343451 1.0748255669740831e-33
  outer loop
    vertex 479.22890821699184 440.00984076873465 4.737543690680468e-13
    vertex 450.48832650451345 431.70429363111236 4.737543690680468e-13
    vertex 450.48832650451345 431.70429363111236 72.15000000000047
  endloop
endfacet
facet normal -0.2776233339834317 0.9606900043343451 1.0748255669740831e-33
  outer loop
    vertex 479.22890821699184 440.00984076873465 4.737543690680468e-13
    vertex 450.48832650451345 431.70429363111236 72.15000000000047
    vertex 479.22890821699184 440.00984076873465 72.15000000000047
  endloop
endfacet
facet normal 0.4830010746076575 0.8756197587582456 -1.3869842763590342e-33
  outer loop
    vertex 538.1826595862196 433.4162972931814 4.737543690680468e-13
    vertex 564.3782285128358 418.966545771519 -22.784568999999525
    vertex 538.1826595862196 433.4162972931814 -22.784568999999525
  endloop
endfacet
facet normal 0.4830010746076575 0.8756197587582456 -1.3869842763590342e-33
  outer loop
    vertex 564.3782285128358 418.966545771519 -22.784568999999525
    vertex 538.1826595862196 433.4162972931814 4.737543690680468e-13
    vertex 564.3782285128358 418.966545771519 4.737543690680468e-13
  endloop
endfacet
facet normal 0.4830010746076575 0.8756197587582456 -1.3869842763590342e-33
  outer loop
    vertex 564.3782285128358 418.966545771519 4.737543690680468e-13
    vertex 538.1826595862196 433.4162972931814 4.737543690680468e-13
    vertex 538.1826595862196 433.4162972931814 72.15000000000047
  endloop
endfacet
facet normal 0.4830010746076575 0.8756197587582456 -1.3869842763590342e-33
  outer loop
    vertex 564.3782285128358 418.966545771519 4.737543690680468e-13
    vertex 538.1826595862196 433.4162972931814 72.15000000000047
    vertex 564.3782285128358 418.966545771519 72.15000000000047
  endloop
endfacet
facet normal 0.5168084178364283 -0.8561010800445285 -1.8240585805890488e-33
  outer loop
    vertex 567.9274384054596 237.16460142026762 4.737543690680468e-13
    vertex 542.3158020460188 221.7034490240621 -22.784568999999525
    vertex 567.9274384054596 237.16460142026762 -22.784568999999525
  endloop
endfacet
facet normal 0.5168084178364283 -0.8561010800445285 -1.8240585805890488e-33
  outer loop
    vertex 542.3158020460188 221.7034490240621 -22.784568999999525
    vertex 567.9274384054596 237.16460142026762 4.737543690680468e-13
    vertex 542.3158020460188 221.7034490240621 4.737543690680468e-13
  endloop
endfacet
facet normal 0.5168084178364283 -0.8561010800445285 -1.8240585805890488e-33
  outer loop
    vertex 542.3158020460188 221.7034490240621 4.737543690680468e-13
    vertex 567.9274384054596 237.16460142026762 4.737543690680468e-13
    vertex 567.9274384054596 237.16460142026762 72.15000000000047
  endloop
endfacet
facet normal 0.5168084178364283 -0.8561010800445285 -1.8240585805890488e-33
  outer loop
    vertex 542.3158020460188 221.7034490240621 4.737543690680468e-13
    vertex 567.9274384054596 237.16460142026762 72.15000000000047
    vertex 542.3158020460188 221.7034490240621 72.15000000000047
  endloop
endfacet
facet normal 0.6931702819236085 0.7207738620801569 -2.092115341320982e-33
  outer loop
    vertex 564.3782285128358 418.966545771519 4.737543690680468e-13
    vertex 585.9413341825853 398.2292454577813 -22.784568999999525
    vertex 564.3782285128358 418.966545771519 -22.784568999999525
  endloop
endfacet
facet normal 0.6931702819236085 0.7207738620801569 -2.092115341320982e-33
  outer loop
    vertex 585.9413341825853 398.2292454577813 -22.784568999999525
    vertex 564.3782285128358 418.966545771519 4.737543690680468e-13
    vertex 585.9413341825853 398.2292454577813 4.737543690680468e-13
  endloop
endfacet
facet normal 0.6931702819236085 0.7207738620801569 -2.092115341320982e-33
  outer loop
    vertex 585.9413341825853 398.2292454577813 4.737543690680468e-13
    vertex 564.3782285128358 418.966545771519 4.737543690680468e-13
    vertex 564.3782285128358 418.966545771519 72.15000000000047
  endloop
endfacet
facet normal 0.6931702819236085 0.7207738620801569 -2.092115341320982e-33
  outer loop
    vertex 585.9413341825853 398.2292454577813 4.737543690680468e-13
    vertex 564.3782285128358 418.966545771519 72.15000000000047
    vertex 585.9413341825853 398.2292454577813 72.15000000000047
  endloop
endfacet
facet normal -0.9998094924440709 -0.0195186787137194 3.211042856948034e-33
  outer loop
    vertex 382.5121622669431 339.4416191871809 72.15000000000047
    vertex 383.09609483411907 309.530715269313 4.737543690680468e-13
    vertex 383.09609483411907 309.530715269313 72.15000000000047
  endloop
endfacet
facet normal -0.9998094924440709 -0.0195186787137194 3.211042856948034e-33
  outer loop
    vertex 383.09609483411907 309.530715269313 4.737543690680468e-13
    vertex 382.5121622669431 339.4416191871809 72.15000000000047
    vertex 383.09609483411907 309.530715269313 -22.784568999999525
  endloop
endfacet
facet normal -0.9998094924440709 -0.0195186787137194 3.211042856948034e-33
  outer loop
    vertex 383.09609483411907 309.530715269313 -22.784568999999525
    vertex 382.5121622669431 339.4416191871809 72.15000000000047
    vertex 382.5121622669431 339.4416191871809 -22.784568999999525
  endloop
endfacet
facet normal -0.9998094924440709 -0.0195186787137194 3.211042856948034e-33
  outer loop
    vertex 382.5121622669431 339.4416191871809 -22.784568999999525
    vertex 382.5121622669431 339.4416191871809 72.15000000000047
    vertex 382.5121622669431 339.4416191871809 4.737543690680468e-13
  endloop
endfacet
facet normal -0.6931702819236163 -0.7207738620801495 2.092115341321008e-33
  outer loop
    vertex 428.42590003769544 234.44119688365555 4.737543690680468e-13
    vertex 406.86279436794615 255.17849719739357 -22.784568999999525
    vertex 428.42590003769544 234.44119688365555 -22.784568999999525
  endloop
endfacet
facet normal -0.6931702819236163 -0.7207738620801495 2.092115341321008e-33
  outer loop
    vertex 406.86279436794615 255.17849719739357 -22.784568999999525
    vertex 428.42590003769544 234.44119688365555 4.737543690680468e-13
    vertex 406.86279436794615 255.17849719739357 4.737543690680468e-13
  endloop
endfacet
facet normal -0.6931702819236163 -0.7207738620801495 2.092115341321008e-33
  outer loop
    vertex 406.86279436794615 255.17849719739357 4.737543690680468e-13
    vertex 428.42590003769544 234.44119688365555 4.737543690680468e-13
    vertex 428.42590003769544 234.44119688365555 72.15000000000047
  endloop
endfacet
facet normal -0.6931702819236163 -0.7207738620801495 2.092115341321008e-33
  outer loop
    vertex 406.86279436794615 255.17849719739357 4.737543690680468e-13
    vertex 428.42590003769544 234.44119688365555 72.15000000000047
    vertex 406.86279436794615 255.17849719739357 72.15000000000047
  endloop
endfacet
facet normal 0.9998094924440709 0.01951867871371946 -3.211042856948034e-33
  outer loop
    vertex 609.7080337164123 343.8770273858619 -22.784568999999525
    vertex 610.0000000000002 328.921575426928 4.737543690680468e-13
    vertex 610.0000000000002 328.921575426928 -22.784568999999525
  endloop
endfacet
facet normal 0.9998094924440709 0.01951867871371946 -3.211042856948034e-33
  outer loop
    vertex 610.0000000000002 328.921575426928 4.737543690680468e-13
    vertex 609.7080337164123 343.8770273858619 -22.784568999999525
    vertex 610.0000000000002 328.921575426928 72.15000000000047
  endloop
endfacet
facet normal 0.9998094924440709 0.01951867871371946 -3.211042856948034e-33
  outer loop
    vertex 610.0000000000002 328.921575426928 72.15000000000047
    vertex 609.7080337164123 343.8770273858619 -22.784568999999525
    vertex 609.7080337164123 343.8770273858619 72.15000000000047
  endloop
endfacet
facet normal 0.9998094924440709 0.01951867871371946 -3.211042856948034e-33
  outer loop
    vertex 609.7080337164123 343.8770273858619 72.15000000000047
    vertex 609.7080337164123 343.8770273858619 -22.784568999999525
    vertex 609.7080337164123 343.8770273858619 4.737543690680468e-13
  endloop
endfacet
facet normal 0.01951867871370746 -0.9998094924440711 -2.5234496720303806e-34
  outer loop
    vertex 513.5752203335403 213.39790188644017 4.737543690680468e-13
    vertex 483.66431641567266 212.8139693192645 -22.784568999999525
    vertex 513.5752203335403 213.39790188644017 -22.784568999999525
  endloop
endfacet
facet normal 0.01951867871370746 -0.9998094924440711 -2.5234496720303806e-34
  outer loop
    vertex 483.66431641567266 212.8139693192645 -22.784568999999525
    vertex 513.5752203335403 213.39790188644017 4.737543690680468e-13
    vertex 483.66431641567266 212.8139693192645 4.737543690680468e-13
  endloop
endfacet
facet normal 0.01951867871370746 -0.9998094924440711 -2.5234496720303806e-34
  outer loop
    vertex 483.66431641567266 212.8139693192645 4.737543690680468e-13
    vertex 513.5752203335403 213.39790188644017 4.737543690680468e-13
    vertex 513.5752203335403 213.39790188644017 72.15000000000047
  endloop
endfacet
facet normal 0.01951867871370746 -0.9998094924440711 -2.5234496720303806e-34
  outer loop
    vertex 483.66431641567266 212.8139693192645 4.737543690680468e-13
    vertex 513.5752203335403 213.39790188644017 72.15000000000047
    vertex 483.66431641567266 212.8139693192645 72.15000000000047
  endloop
endfacet
facet normal 0.7207738620801468 -0.6931702819236192 -2.4489850163361478e-33
  outer loop
    vertex 588.6647387191974 258.72770709001645 -22.784568999999525
    vertex 567.9274384054596 237.16460142026762 4.737543690680468e-13
    vertex 567.9274384054596 237.16460142026762 -22.784568999999525
  endloop
endfacet
facet normal 0.7207738620801468 -0.6931702819236192 -2.4489850163361478e-33
  outer loop
    vertex 567.9274384054596 237.16460142026762 4.737543690680468e-13
    vertex 588.6647387191974 258.72770709001645 -22.784568999999525
    vertex 567.9274384054596 237.16460142026762 72.15000000000047
  endloop
endfacet
facet normal 0.7207738620801468 -0.6931702819236192 -2.4489850163361478e-33
  outer loop
    vertex 567.9274384054596 237.16460142026762 72.15000000000047
    vertex 588.6647387191974 258.72770709001645 -22.784568999999525
    vertex 588.6647387191974 258.72770709001645 72.15000000000047
  endloop
endfacet
facet normal 0.7207738620801468 -0.6931702819236192 -2.4489850163361478e-33
  outer loop
    vertex 588.6647387191974 258.72770709001645 72.15000000000047
    vertex 588.6647387191974 258.72770709001645 -22.784568999999525
    vertex 588.6647387191974 258.72770709001645 4.737543690680468e-13
  endloop
endfacet
facet normal -0.019518678713719522 0.999809492444071 2.523449672030768e-34
  outer loop
    vertex 479.22890821699184 440.00984076873465 4.737543690680468e-13
    vertex 509.13981213485954 440.59377333591067 -22.784568999999525
    vertex 479.22890821699184 440.00984076873465 -22.784568999999525
  endloop
endfacet
facet normal -0.019518678713719522 0.999809492444071 2.523449672030768e-34
  outer loop
    vertex 509.13981213485954 440.59377333591067 -22.784568999999525
    vertex 479.22890821699184 440.00984076873465 4.737543690680468e-13
    vertex 509.13981213485954 440.59377333591067 4.737543690680468e-13
  endloop
endfacet
facet normal -0.019518678713719522 0.999809492444071 2.523449672030768e-34
  outer loop
    vertex 509.13981213485954 440.59377333591067 4.737543690680468e-13
    vertex 479.22890821699184 440.00984076873465 4.737543690680468e-13
    vertex 479.22890821699184 440.00984076873465 72.15000000000047
  endloop
endfacet
facet normal -0.019518678713719522 0.999809492444071 2.523449672030768e-34
  outer loop
    vertex 509.13981213485954 440.59377333591067 4.737543690680468e-13
    vertex 479.22890821699184 440.00984076873465 72.15000000000047
    vertex 509.13981213485954 440.59377333591067 72.15000000000047
  endloop
endfacet
facet normal 0.27762333398342054 -0.9606900043343483 -1.0748255669740479e-33
  outer loop
    vertex 542.3158020460188 221.7034490240621 4.737543690680468e-13
    vertex 513.5752203335403 213.39790188644017 -22.784568999999525
    vertex 542.3158020460188 221.7034490240621 -22.784568999999525
  endloop
endfacet
facet normal 0.27762333398342054 -0.9606900043343483 -1.0748255669740479e-33
  outer loop
    vertex 513.5752203335403 213.39790188644017 -22.784568999999525
    vertex 542.3158020460188 221.7034490240621 4.737543690680468e-13
    vertex 513.5752203335403 213.39790188644017 4.737543690680468e-13
  endloop
endfacet
facet normal 0.27762333398342054 -0.9606900043343483 -1.0748255669740479e-33
  outer loop
    vertex 513.5752203335403 213.39790188644017 4.737543690680468e-13
    vertex 542.3158020460188 221.7034490240621 4.737543690680468e-13
    vertex 542.3158020460188 221.7034490240621 72.15000000000047
  endloop
endfacet
facet normal 0.27762333398342054 -0.9606900043343483 -1.0748255669740479e-33
  outer loop
    vertex 513.5752203335403 213.39790188644017 4.737543690680468e-13
    vertex 542.3158020460188 221.7034490240621 72.15000000000047
    vertex 513.5752203335403 213.39790188644017 72.15000000000047
  endloop
endfacet
facet normal -3.2153565693612344e-33 1.896215797193712e-34 -1.0
  outer loop
    vertex 389.6896383096725 368.4844666385408 72.15000000000047
    vertex 383.09609483411907 309.530715269313 72.15000000000047
    vertex 382.5121622669431 339.4416191871809 72.15000000000047
  endloop
endfacet
facet normal -3.2153565693612344e-33 1.896215797193712e-34 -1.0
  outer loop
    vertex 383.09609483411907 309.530715269313 72.15000000000047
    vertex 389.6896383096725 368.4844666385408 72.15000000000047
    vertex 391.4016419717411 280.79013355683406 72.15000000000047
  endloop
endfacet
facet normal -3.2153565693612344e-33 1.896215797193712e-34 -1.0
  outer loop
    vertex 391.4016419717411 280.79013355683406 72.15000000000047
    vertex 389.6896383096725 368.4844666385408 72.15000000000047
    vertex 404.1393898313344 394.6800355651578 72.15000000000047
  endloop
endfacet
facet normal -3.2153565693612344e-33 1.896215797193712e-34 -1.0
  outer loop
    vertex 391.4016419717411 280.79013355683406 72.15000000000047
    vertex 404.1393898313344 394.6800355651578 72.15000000000047
    vertex 406.86279436794615 255.17849719739357 72.15000000000047
  endloop
endfacet
facet normal -3.2153565693612344e-33 1.896215797193712e-34 -1.0
  outer loop
    vertex 406.86279436794615 255.17849719739357 72.15000000000047
    vertex 404.1393898313344 394.6800355651578 72.15000000000047
    vertex 424.87669014507236 416.24314123490717 72.15000000000047
  endloop
endfacet
facet normal -3.2153565693612344e-33 1.896215797193712e-34 -1.0
  outer loop
    vertex 406.86279436794615 255.17849719739357 72.15000000000047
    vertex 424.87669014507236 416.24314123490717 72.15000000000047
    vertex 428.42590003769544 234.44119688365555 72.15000000000047
  endloop
endfacet
facet normal -3.2153565693612344e-33 1.896215797193712e-34 -1.0
  outer loop
    vertex 428.42590003769544 234.44119688365555 72.15000000000047
    vertex 424.87669014507236 416.24314123490717 72.15000000000047
    vertex 450.48832650451345 431.70429363111236 72.15000000000047
  endloop
endfacet
facet normal -3.2153565693612344e-33 1.896215797193712e-34 -1.0
  outer loop
    vertex 428.42590003769544 234.44119688365555 72.15000000000047
    vertex 450.48832650451345 431.70429363111236 72.15000000000047
    vertex 454.6214689643129 219.9914453619931 72.15000000000047
  endloop
endfacet
facet normal -3.2153565693612344e-33 1.896215797193712e-34 -1.0
  outer loop
    vertex 454.6214689643129 219.9914453619931 72.15000000000047
    vertex 450.48832650451345 431.70429363111236 72.15000000000047
    vertex 479.22890821699184 440.00984076873465 72.15000000000047
  endloop
endfacet
facet normal -3.2153565693612344e-33 1.896215797193712e-34 -1.0
  outer loop
    vertex 454.6214689643129 219.9914453619931 72.15000000000047
    vertex 479.22890821699184 440.00984076873465 72.15000000000047
    vertex 483.66431641567266 212.8139693192645 72.15000000000047
  endloop
endfacet
facet normal -3.2153565693612344e-33 1.896215797193712e-34 -1.0
  outer loop
    vertex 483.66431641567266 212.8139693192645 72.15000000000047
    vertex 479.22890821699184 440.00984076873465 72.15000000000047
    vertex 509.13981213485954 440.59377333591067 72.15000000000047
  endloop
endfacet
facet normal -3.2153565693612344e-33 1.896215797193712e-34 -1.0
  outer loop
    vertex 483.66431641567266 212.8139693192645 72.15000000000047
    vertex 509.13981213485954 440.59377333591067 72.15000000000047
    vertex 513.5752203335403 213.39790188644017 72.15000000000047
  endloop
endfacet
facet normal -3.2153565693612344e-33 1.896215797193712e-34 -1.0
  outer loop
    vertex 513.5752203335403 213.39790188644017 72.15000000000047
    vertex 509.13981213485954 440.59377333591067 72.15000000000047
    vertex 538.1826595862196 433.4162972931814 72.15000000000047
  endloop
endfacet
facet normal -3.2153565693612344e-33 1.896215797193712e-34 -1.0
  outer loop
    vertex 513.5752203335403 213.39790188644017 72.15000000000047
    vertex 538.1826595862196 433.4162972931814 72.15000000000047
    vertex 542.3158020460188 221.7034490240621 72.15000000000047
  endloop
endfacet
facet normal -3.2153565693612344e-33 1.896215797193712e-34 -1.0
  outer loop
    vertex 542.3158020460188 221.7034490240621 72.15000000000047
    vertex 538.1826595862196 433.4162972931814 72.15000000000047
    vertex 564.3782285128358 418.966545771519 72.15000000000047
  endloop
endfacet
facet normal -3.2153565693612344e-33 1.896215797193712e-34 -1.0
  outer loop
    vertex 542.3158020460188 221.7034490240621 72.15000000000047
    vertex 564.3782285128358 418.966545771519 72.15000000000047
    vertex 567.9274384054596 237.16460142026762 72.15000000000047
  endloop
endfacet
facet normal -3.2153565693612344e-33 1.896215797193712e-34 -1.0
  outer loop
    vertex 567.9274384054596 237.16460142026762 72.15000000000047
    vertex 564.3782285128358 418.966545771519 72.15000000000047
    vertex 585.9413341825853 398.2292454577813 72.15000000000047
  endloop
endfacet
facet normal -3.2153565693612344e-33 1.896215797193712e-34 -1.0
  outer loop
    vertex 567.9274384054596 237.16460142026762 72.15000000000047
    vertex 585.9413341825853 398.2292454577813 72.15000000000047
    vertex 588.6647387191974 258.72770709001645 72.15000000000047
  endloop
endfacet
facet normal -3.2153565693612344e-33 1.896215797193712e-34 -1.0
  outer loop
    vertex 588.6647387191974 258.72770709001645 72.15000000000047
    vertex 585.9413341825853 398.2292454577813 72.15000000000047
    vertex 601.4024865787904 372.6176090983403 72.15000000000047
  endloop
endfacet
facet normal -3.2153565693612344e-33 1.896215797193712e-34 -1.0
  outer loop
    vertex 588.6647387191974 258.72770709001645 72.15000000000047
    vertex 601.4024865787904 372.6176090983403 72.15000000000047
    vertex 603.1144902408598 284.9232760166338 72.15000000000047
  endloop
endfacet
facet normal -3.2153565693612344e-33 1.896215797193712e-34 -1.0
  outer loop
    vertex 603.1144902408598 284.9232760166338 72.15000000000047
    vertex 601.4024865787904 372.6176090983403 72.15000000000047
    vertex 609.7080337164123 343.8770273858619 72.15000000000047
  endloop
endfacet
facet normal -3.2153565693612344e-33 1.896215797193712e-34 -1.0
  outer loop
    vertex 603.1144902408598 284.9232760166338 72.15000000000047
    vertex 609.7080337164123 343.8770273858619 72.15000000000047
    vertex 610.0000000000002 312.7847148245228 72.15000000000047
  endloop
endfacet
facet normal -3.2153565693612344e-33 1.896215797193712e-34 -1.0
  outer loop
    vertex 610.0000000000002 312.7847148245228 72.15000000000047
    vertex 609.7080337164123 343.8770273858619 72.15000000000047
    vertex 610.0000000000002 328.921575426928 72.15000000000047
  endloop
endfacet
facet normal -1.0 8.951173136040285e-16 3.2153565693612344e-33
  outer loop
    vertex 610.0000000000002 328.921575426928 72.15000000000047
    vertex 610.0000000000002 312.7847148245228 4.737543690680468e-13
    vertex 610.0000000000002 312.7847148245228 72.15000000000047
  endloop
endfacet
facet normal -1.0 8.951173136040285e-16 3.2153565693612344e-33
  outer loop
    vertex 610.0000000000002 312.7847148245228 4.737543690680468e-13
    vertex 610.0000000000002 328.921575426928 72.15000000000047
    vertex 610.0000000000002 328.921575426928 4.737543690680468e-13
  endloop
endfacet
facet normal 0.9707936159070475 -0.2399161422541635 -3.166940908295084e-33
  outer loop
    vertex 610.0000000000002 312.7847148245228 -22.784568999999525
    vertex 603.1144902408598 284.9232760166338 4.737543690680468e-13
    vertex 603.1144902408598 284.9232760166338 -22.784568999999525
  endloop
endfacet
facet normal 0.9707936159070475 -0.2399161422541635 -3.166940908295084e-33
  outer loop
    vertex 603.1144902408598 284.9232760166338 4.737543690680468e-13
    vertex 610.0000000000002 312.7847148245228 -22.784568999999525
    vertex 603.1144902408598 284.9232760166338 72.15000000000047
  endloop
endfacet
facet normal 0.9707936159070475 -0.2399161422541635 -3.166940908295084e-33
  outer loop
    vertex 603.1144902408598 284.9232760166338 72.15000000000047
    vertex 610.0000000000002 312.7847148245228 -22.784568999999525
    vertex 610.0000000000002 312.7847148245228 72.15000000000047
  endloop
endfacet
facet normal 0.9707936159070475 -0.2399161422541635 -3.166940908295084e-33
  outer loop
    vertex 610.0000000000002 312.7847148245228 72.15000000000047
    vertex 610.0000000000002 312.7847148245228 -22.784568999999525
    vertex 610.0000000000002 312.7847148245228 4.737543690680468e-13
  endloop
endfacet
facet normal 0.8756197587582528 -0.48300107460764424 -2.9070171703591027e-33
  outer loop
    vertex 603.1144902408598 284.9232760166338 -22.784568999999525
    vertex 588.6647387191974 258.72770709001645 4.737543690680468e-13
    vertex 588.6647387191974 258.72770709001645 -22.784568999999525
  endloop
endfacet
facet normal 0.8756197587582528 -0.48300107460764424 -2.9070171703591027e-33
  outer loop
    vertex 588.6647387191974 258.72770709001645 4.737543690680468e-13
    vertex 603.1144902408598 284.9232760166338 -22.784568999999525
    vertex 588.6647387191974 258.72770709001645 72.15000000000047
  endloop
endfacet
facet normal 0.8756197587582528 -0.48300107460764424 -2.9070171703591027e-33
  outer loop
    vertex 588.6647387191974 258.72770709001645 72.15000000000047
    vertex 603.1144902408598 284.9232760166338 -22.784568999999525
    vertex 603.1144902408598 284.9232760166338 72.15000000000047
  endloop
endfacet
facet normal 0.8756197587582528 -0.48300107460764424 -2.9070171703591027e-33
  outer loop
    vertex 603.1144902408598 284.9232760166338 72.15000000000047
    vertex 603.1144902408598 284.9232760166338 -22.784568999999525
    vertex 603.1144902408598 284.9232760166338 4.737543690680468e-13
  endloop
endfacet
facet normal 3.993902363415356e-33 6.228504301797767e-34 -1.0
  outer loop
    vertex 610.0000000000005 610.0 -22.784568999999525
    vertex 181.5358812000064 361.20698940256335 -22.784568999999998
    vertex 5.460215612984625e-13 610.0000000000006 -22.784568999999525
  endloop
endfacet
facet normal 3.993902363415356e-33 6.228504301797767e-34 -1.0
  outer loop
    vertex 181.5358812000064 361.20698940256335 -22.784568999999998
    vertex 610.0000000000005 610.0 -22.784568999999525
    vertex 323.53588070000643 361.20698940256347 -22.784568999999884
  endloop
endfacet
facet normal 3.993902363415356e-33 6.228504301797767e-34 -1.0
  outer loop
    vertex 323.53588070000643 361.20698940256347 -22.784568999999884
    vertex 610.0000000000005 610.0 -22.784568999999525
    vertex 404.1393898313344 394.6800355651578 -22.784568999999525
  endloop
endfacet
facet normal 3.993902363415356e-33 6.228504301797767e-34 -1.0
  outer loop
    vertex 323.53588070000643 361.20698940256347 -22.784568999999884
    vertex 404.1393898313344 394.6800355651578 -22.784568999999525
    vertex 389.6896383096725 368.4844666385408 -22.784568999999525
  endloop
endfacet
facet normal 3.993902363415356e-33 6.228504301797767e-34 -1.0
  outer loop
    vertex 323.53588070000643 361.20698940256347 -22.784568999999884
    vertex 389.6896383096725 368.4844666385408 -22.784568999999525
    vertex 323.53588070000643 231.2069892014794 -22.784568999999525
  endloop
endfacet
facet normal 3.993902363415356e-33 6.228504301797767e-34 -1.0
  outer loop
    vertex 323.53588070000643 231.2069892014794 -22.784568999999525
    vertex 389.6896383096725 368.4844666385408 -22.784568999999525
    vertex 382.5121622669431 339.4416191871809 -22.784568999999525
  endloop
endfacet
facet normal 3.993902363415356e-33 6.228504301797767e-34 -1.0
  outer loop
    vertex 404.1393898313344 394.6800355651578 -22.784568999999525
    vertex 610.0000000000005 610.0 -22.784568999999525
    vertex 424.87669014507236 416.24314123490717 -22.784568999999525
  endloop
endfacet
facet normal 3.993902363415356e-33 6.228504301797767e-34 -1.0
  outer loop
    vertex 424.87669014507236 416.24314123490717 -22.784568999999525
    vertex 610.0000000000005 610.0 -22.784568999999525
    vertex 450.48832650451345 431.70429363111236 -22.784568999999525
  endloop
endfacet
facet normal 3.993902363415356e-33 6.228504301797767e-34 -1.0
  outer loop
    vertex 450.48832650451345 431.70429363111236 -22.784568999999525
    vertex 610.0000000000005 610.0 -22.784568999999525
    vertex 479.22890821699184 440.00984076873465 -22.784568999999525
  endloop
endfacet
facet normal 3.993902363415356e-33 6.228504301797767e-34 -1.0
  outer loop
    vertex 479.22890821699184 440.00984076873465 -22.784568999999525
    vertex 610.0000000000005 610.0 -22.784568999999525
    vertex 509.13981213485954 440.59377333591067 -22.784568999999525
  endloop
endfacet
facet normal 3.993902363415356e-33 6.228504301797767e-34 -1.0
  outer loop
    vertex 509.13981213485954 440.59377333591067 -22.784568999999525
    vertex 610.0000000000005 610.0 -22.784568999999525
    vertex 538.1826595862196 433.4162972931814 -22.784568999999525
  endloop
endfacet
facet normal 3.993902363415356e-33 6.228504301797767e-34 -1.0
  outer loop
    vertex 538.1826595862196 433.4162972931814 -22.784568999999525
    vertex 610.0000000000005 610.0 -22.784568999999525
    vertex 564.3782285128358 418.966545771519 -22.784568999999525
  endloop
endfacet
facet normal 3.993902363415356e-33 6.228504301797767e-34 -1.0
  outer loop
    vertex 564.3782285128358 418.966545771519 -22.784568999999525
    vertex 610.0000000000005 610.0 -22.784568999999525
    vertex 585.9413341825853 398.2292454577813 -22.784568999999525
  endloop
endfacet
facet normal 3.993902363415356e-33 6.228504301797767e-34 -1.0
  outer loop
    vertex 585.9413341825853 398.2292454577813 -22.784568999999525
    vertex 610.0000000000005 610.0 -22.784568999999525
    vertex 601.4024865787904 372.6176090983403 -22.784568999999525
  endloop
endfacet
facet normal 3.993902363415356e-33 6.228504301797767e-34 -1.0
  outer loop
    vertex 601.4024865787904 372.6176090983403 -22.784568999999525
    vertex 610.0000000000005 610.0 -22.784568999999525
    vertex 609.7080337164123 343.8770273858619 -22.784568999999525
  endloop
endfacet
facet normal 3.993902363415356e-33 6.228504301797767e-34 -1.0
  outer loop
    vertex 609.7080337164123 343.8770273858619 -22.784568999999525
    vertex 610.0000000000005 610.0 -22.784568999999525
    vertex 610.0000000000002 328.921575426928 -22.784568999999525
  endloop
endfacet
facet normal 3.993902363415356e-33 6.228504301797767e-34 -1.0
  outer loop
    vertex 5.611288751371621e-28 6.31672492090729e-13 -22.784568999999525
    vertex 181.53588120000643 231.20698920147933 -22.784568999999525
    vertex 610.0 9.023892744153272e-14 -22.784568999999525
  endloop
endfacet
facet normal 3.993902363415356e-33 6.228504301797767e-34 -1.0
  outer loop
    vertex 181.53588120000643 231.20698920147933 -22.784568999999525
    vertex 5.611288751371621e-28 6.31672492090729e-13 -22.784568999999525
    vertex 5.460215612984625e-13 610.0000000000006 -22.784568999999525
  endloop
endfacet
facet normal 3.993902363415356e-33 6.228504301797767e-34 -1.0
  outer loop
    vertex 181.53588120000643 231.20698920147933 -22.784568999999525
    vertex 5.460215612984625e-13 610.0000000000006 -22.784568999999525
    vertex 181.5358812000064 361.20698940256335 -22.784568999999998
  endloop
endfacet
facet normal 3.993902363415356e-33 6.228504301797767e-34 -1.0
  outer loop
    vertex 610.0 9.023892744153272e-14 -22.784568999999525
    vertex 181.53588120000643 231.20698920147933 -22.784568999999525
    vertex 323.53588070000643 231.2069892014794 -22.784568999999525
  endloop
endfacet
facet normal 3.993902363415356e-33 6.228504301797767e-34 -1.0
  outer loop
    vertex 610.0 9.023892744153272e-14 -22.784568999999525
    vertex 323.53588070000643 231.2069892014794 -22.784568999999525
    vertex 406.86279436794615 255.17849719739357 -22.784568999999525
  endloop
endfacet
facet normal 3.993902363415356e-33 6.228504301797767e-34 -1.0
  outer loop
    vertex 406.86279436794615 255.17849719739357 -22.784568999999525
    vertex 323.53588070000643 231.2069892014794 -22.784568999999525
    vertex 391.4016419717411 280.79013355683406 -22.784568999999525
  endloop
endfacet
facet normal 3.993902363415356e-33 6.228504301797767e-34 -1.0
  outer loop
    vertex 391.4016419717411 280.79013355683406 -22.784568999999525
    vertex 323.53588070000643 231.2069892014794 -22.784568999999525
    vertex 383.09609483411907 309.530715269313 -22.784568999999525
  endloop
endfacet
facet normal 3.993902363415356e-33 6.228504301797767e-34 -1.0
  outer loop
    vertex 383.09609483411907 309.530715269313 -22.784568999999525
    vertex 323.53588070000643 231.2069892014794 -22.784568999999525
    vertex 382.5121622669431 339.4416191871809 -22.784568999999525
  endloop
endfacet
facet normal 3.993902363415356e-33 6.228504301797767e-34 -1.0
  outer loop
    vertex 610.0 9.023892744153272e-14 -22.784568999999525
    vertex 406.86279436794615 255.17849719739357 -22.784568999999525
    vertex 428.42590003769544 234.44119688365555 -22.784568999999525
  endloop
endfacet
facet normal 3.993902363415356e-33 6.228504301797767e-34 -1.0
  outer loop
    vertex 610.0 9.023892744153272e-14 -22.784568999999525
    vertex 428.42590003769544 234.44119688365555 -22.784568999999525
    vertex 454.6214689643129 219.9914453619931 -22.784568999999525
  endloop
endfacet
facet normal 3.993902363415356e-33 6.228504301797767e-34 -1.0
  outer loop
    vertex 610.0 9.023892744153272e-14 -22.784568999999525
    vertex 454.6214689643129 219.9914453619931 -22.784568999999525
    vertex 483.66431641567266 212.8139693192645 -22.784568999999525
  endloop
endfacet
facet normal 3.993902363415356e-33 6.228504301797767e-34 -1.0
  outer loop
    vertex 610.0 9.023892744153272e-14 -22.784568999999525
    vertex 483.66431641567266 212.8139693192645 -22.784568999999525
    vertex 513.5752203335403 213.39790188644017 -22.784568999999525
  endloop
endfacet
facet normal 3.993902363415356e-33 6.228504301797767e-34 -1.0
  outer loop
    vertex 610.0 9.023892744153272e-14 -22.784568999999525
    vertex 513.5752203335403 213.39790188644017 -22.784568999999525
    vertex 542.3158020460188 221.7034490240621 -22.784568999999525
  endloop
endfacet
facet normal 3.993902363415356e-33 6.228504301797767e-34 -1.0
  outer loop
    vertex 610.0 9.023892744153272e-14 -22.784568999999525
    vertex 542.3158020460188 221.7034490240621 -22.784568999999525
    vertex 567.9274384054596 237.16460142026762 -22.784568999999525
  endloop
endfacet
facet normal 3.993902363415356e-33 6.228504301797767e-34 -1.0
  outer loop
    vertex 610.0 9.023892744153272e-14 -22.784568999999525
    vertex 567.9274384054596 237.16460142026762 -22.784568999999525
    vertex 588.6647387191974 258.72770709001645 -22.784568999999525
  endloop
endfacet
facet normal 3.993902363415356e-33 6.228504301797767e-34 -1.0
  outer loop
    vertex 610.0 9.023892744153272e-14 -22.784568999999525
    vertex 588.6647387191974 258.72770709001645 -22.784568999999525
    vertex 603.1144902408598 284.9232760166338 -22.784568999999525
  endloop
endfacet
facet normal 3.993902363415356e-33 6.228504301797767e-34 -1.0
  outer loop
    vertex 610.0 9.023892744153272e-14 -22.784568999999525
    vertex 603.1144902408598 284.9232760166338 -22.784568999999525
    vertex 610.0000000000002 312.7847148245228 -22.784568999999525
  endloop
endfacet
facet normal -1.0 8.95117313604036e-16 -3.993902363415356e-33
  outer loop
    vertex 5.460215612984625e-13 610.0000000000006 4.737543690680468e-13
    vertex 5.611288751371621e-28 6.31672492090729e-13 -22.784568999999525
    vertex 5.610378757931835e-28 6.31672492090729e-13 4.737543690680468e-13
  endloop
endfacet
facet normal -1.0 8.95117313604036e-16 -3.993902363415356e-33
  outer loop
    vertex 5.611288751371621e-28 6.31672492090729e-13 -22.784568999999525
    vertex 5.460215612984625e-13 610.0000000000006 4.737543690680468e-13
    vertex 5.460215612984625e-13 610.0000000000006 -22.784568999999525
  endloop
endfacet
facet normal -8.875960076216334e-16 -1.0 -6.228504301797803e-34
  outer loop
    vertex 610.0 9.023892744153272e-14 4.737543690680468e-13
    vertex 5.611288751371621e-28 6.31672492090729e-13 -22.784568999999525
    vertex 610.0 9.023892744153272e-14 -22.784568999999525
  endloop
endfacet
facet normal -8.875960076216334e-16 -1.0 -6.228504301797803e-34
  outer loop
    vertex 5.611288751371621e-28 6.31672492090729e-13 -22.784568999999525
    vertex 610.0 9.023892744153272e-14 4.737543690680468e-13
    vertex 5.610378757931835e-28 6.31672492090729e-13 4.737543690680468e-13
  endloop
endfacet
facet normal 1.0 -8.655051525662777e-16 3.993902363415356e-33
  outer loop
    vertex 610.0000000000002 312.7847148245228 -22.784568999999525
    vertex 610.0 9.023892744153272e-14 4.737543690680468e-13
    vertex 610.0 9.023892744153272e-14 -22.784568999999525
  endloop
endfacet
facet normal 1.0 -8.655051525662777e-16 3.993902363415356e-33
  outer loop
    vertex 610.0 9.023892744153272e-14 4.737543690680468e-13
    vertex 610.0000000000002 312.7847148245228 -22.784568999999525
    vertex 610.0000000000002 312.7847148245228 4.737543690680468e-13
  endloop
endfacet
facet normal 1.0 -9.631361166755786e-16 3.9939023634153556e-33
  outer loop
    vertex 610.0000000000005 610.0 -22.784568999999525
    vertex 610.0000000000002 328.921575426928 4.737543690680468e-13
    vertex 610.0000000000002 328.921575426928 -22.784568999999525
  endloop
endfacet
facet normal 1.0 -9.631361166755786e-16 3.9939023634153556e-33
  outer loop
    vertex 610.0000000000002 328.921575426928 4.737543690680468e-13
    vertex 610.0000000000005 610.0 -22.784568999999525
    vertex 610.0000000000005 610.0 4.737543690680468e-13
  endloop
endfacet
facet normal 8.875960076216334e-16 1.0 6.228504301797803e-34
  outer loop
    vertex 5.460215612984625e-13 610.0000000000006 4.737543690680468e-13
    vertex 610.0000000000005 610.0 -22.784568999999525
    vertex 5.460215612984625e-13 610.0000000000006 -22.784568999999525
  endloop
endfacet
facet normal 8.875960076216334e-16 1.0 6.228504301797803e-34
  outer loop
    vertex 610.0000000000005 610.0 -22.784568999999525
    vertex 5.460215612984625e-13 610.0000000000006 4.737543690680468e-13
    vertex 610.0000000000005 610.0 4.737543690680468e-13
  endloop
endfacet
facet normal 6.354854067554607e-16 -1.0 -6.228504301797741e-34
  outer loop
    vertex 323.53588070000643 361.20698940256347 -22.784568999999884
    vertex 181.5358812000064 361.20698940256335 0.0
    vertex 181.5358812000064 361.20698940256335 -22.784568999999998
  endloop
endfacet
facet normal 6.354854067554607e-16 -1.0 -6.228504301797741e-34
  outer loop
    vertex 181.5358812000064 361.20698940256335 0.0
    vertex 323.53588070000643 361.20698940256347 -22.784568999999884
    vertex 323.53588070000643 361.20698940256347 1.127986593019159e-13
  endloop
endfacet
facet normal -1.0 -1.1089398923794739e-47 -3.993902363415356e-33
  outer loop
    vertex 323.53588070000643 361.20698940256347 1.127986593019159e-13
    vertex 323.53588070000643 231.2069892014794 -22.784568999999525
    vertex 323.53588070000643 231.2069892014794 4.737543690680468e-13
  endloop
endfacet
facet normal -1.0 -1.1089398923794739e-47 -3.993902363415356e-33
  outer loop
    vertex 323.53588070000643 231.2069892014794 -22.784568999999525
    vertex 323.53588070000643 361.20698940256347 1.127986593019159e-13
    vertex 323.53588070000643 361.20698940256347 -22.784568999999884
  endloop
endfacet
facet normal -3.177427033777304e-16 1.0 6.228504301797755e-34
  outer loop
    vertex 181.53588120000643 231.20698920147933 4.737543690680468e-13
    vertex 323.53588070000643 231.2069892014794 -22.784568999999525
    vertex 181.53588120000643 231.20698920147933 -22.784568999999525
  endloop
endfacet
facet normal -3.177427033777304e-16 1.0 6.228504301797755e-34
  outer loop
    vertex 323.53588070000643 231.2069892014794 -22.784568999999525
    vertex 181.53588120000643 231.20698920147933 4.737543690680468e-13
    vertex 323.53588070000643 231.2069892014794 4.737543690680468e-13
  endloop
endfacet
facet normal 1.0 1.7353639865759832e-16 3.993902363415356e-33
  outer loop
    vertex 181.5358812000064 361.20698940256335 -22.784568999999998
    vertex 181.53588120000643 231.20698920147933 4.737543690680468e-13
    vertex 181.53588120000643 231.20698920147933 -22.784568999999525
  endloop
endfacet
facet normal 1.0 1.7353639865759832e-16 3.993902363415356e-33
  outer loop
    vertex 181.53588120000643 231.20698920147933 4.737543690680468e-13
    vertex 181.5358812000064 361.20698940256335 -22.784568999999998
    vertex 181.5358812000064 361.20698940256335 0.0
  endloop
endfacet
endsolid StagingArea
