solid StorageComparments
facet normal 0.0 -0.0 -1.0
  outer loop
    vertex 117.50000000000001 1.5791812302268225e-13 0.0
    vertex 9.023892744153272e-14 120.00000000000023 0.0
    vertex 117.50000000000013 120.00000000000011 0.0
  endloop
endfacet
facet normal 0.0 -0.0 -1.0
  outer loop
    vertex 9.023892744153272e-14 120.00000000000023 0.0
    vertex 117.50000000000001 1.5791812302268225e-13 0.0
    vertex -1.7175150190951574e-14 2.7071678232459813e-13 0.0
  endloop
endfacet
facet normal 0.0 -0.0 -1.0
  outer loop
    vertex 235.00000000000003 6.767919558114953e-14 0.0
    vertex 117.50000000000013 120.00000000000011 0.0
    vertex 235.0000000000001 120.00000000000003 0.0
  endloop
endfacet
facet normal 0.0 -0.0 -1.0
  outer loop
    vertex 117.50000000000013 120.00000000000011 0.0
    vertex 235.00000000000003 6.767919558114953e-14 0.0
    vertex 117.50000000000001 1.5791812302268225e-13 0.0
  endloop
endfacet
facet normal -0.5380354529218652 4.816048492431508e-16 0.8429222095775881
  outer loop
    vertex 235.00000000000003 6.767919558114953e-14 75.00000000000009
    vertex 235.0000000000001 120.00000000000003 75.00000000000009
    vertex 176.25000000000009 60.00000000000009 37.500000000000064
  endloop
endfacet
facet normal -3.888372849938859e-15 -0.529998940003178 0.8479983040050894
  outer loop
    vertex 176.25000000000009 60.00000000000009 37.500000000000064
    vertex 235.0000000000001 120.00000000000003 75.00000000000009
    vertex 117.50000000000013 120.00000000000011 74.99999999999962
  endloop
endfacet
facet normal 0.5380354529218604 -4.708998644184191e-16 0.8429222095775912
  outer loop
    vertex 117.50000000000001 1.5791812302268225e-13 74.99999999999962
    vertex 176.25000000000009 60.00000000000009 37.500000000000064
    vertex 117.50000000000013 120.00000000000011 74.99999999999962
  endloop
endfacet
facet normal 0.5380354529218634 -4.816048492431492e-16 0.8429222095775892
  outer loop
    vertex -1.7175150190951574e-14 2.7071678232459813e-13 74.99999999999908
    vertex 58.75000000000007 60.00000000000019 37.49999999999921
    vertex 9.023892744153272e-14 120.00000000000023 74.99999999999908
  endloop
endfacet
facet normal -3.4322871241894515e-15 0.5299989400031816 0.8479983040050871
  outer loop
    vertex 117.50000000000001 1.5791812302268225e-13 74.99999999999962
    vertex 58.75000000000007 60.00000000000019 37.49999999999921
    vertex -1.7175150190951574e-14 2.7071678232459813e-13 74.99999999999908
  endloop
endfacet
facet normal -1.0 8.95117313604036e-16 0.0
  outer loop
    vertex -1.7175150190951574e-14 2.7071678232459813e-13 74.99999999999908
    vertex 9.023892744153272e-14 120.00000000000023 0.0
    vertex -1.7175150190951574e-14 2.7071678232459813e-13 0.0
  endloop
endfacet
facet normal -1.0 8.95117313604036e-16 0.0
  outer loop
    vertex 9.023892744153272e-14 120.00000000000023 0.0
    vertex -1.7175150190951574e-14 2.7071678232459813e-13 74.99999999999908
    vertex 9.023892744153272e-14 120.00000000000023 74.99999999999908
  endloop
endfacet
facet normal -2.9395503951615975e-15 0.529998940003178 0.8479983040050894
  outer loop
    vertex 235.00000000000003 6.767919558114953e-14 75.00000000000009
    vertex 176.25000000000009 60.00000000000009 37.500000000000064
    vertex 117.50000000000001 1.5791812302268225e-13 74.99999999999962
  endloop
endfacet
facet normal -0.538035452921869 4.816048492431542e-16 0.8429222095775857
  outer loop
    vertex 117.50000000000001 1.5791812302268225e-13 74.99999999999962
    vertex 117.50000000000013 120.00000000000011 74.99999999999962
    vertex 58.75000000000007 60.00000000000019 37.49999999999921
  endloop
endfacet
facet normal -4.381109578966721e-15 -0.5299989400031816 0.8479983040050871
  outer loop
    vertex 58.75000000000007 60.00000000000019 37.49999999999921
    vertex 117.50000000000013 120.00000000000011 74.99999999999962
    vertex 9.023892744153272e-14 120.00000000000023 74.99999999999908
  endloop
endfacet
facet normal -8.95117313604036e-16 -1.0 0.0
  outer loop
    vertex 235.00000000000003 6.767919558114953e-14 0.0
    vertex 117.50000000000001 1.5791812302268225e-13 74.99999999999962
    vertex 117.50000000000001 1.5791812302268225e-13 0.0
  endloop
endfacet
facet normal -8.95117313604036e-16 -1.0 0.0
  outer loop
    vertex 117.50000000000001 1.5791812302268225e-13 74.99999999999962
    vertex 235.00000000000003 6.767919558114953e-14 0.0
    vertex 235.00000000000003 6.767919558114953e-14 75.00000000000009
  endloop
endfacet
facet normal 8.95117313604036e-16 1.0 0.0
  outer loop
    vertex 117.50000000000013 120.00000000000011 74.99999999999962
    vertex 9.023892744153272e-14 120.00000000000023 0.0
    vertex 9.023892744153272e-14 120.00000000000023 74.99999999999908
  endloop
endfacet
facet normal 8.95117313604036e-16 1.0 0.0
  outer loop
    vertex 9.023892744153272e-14 120.00000000000023 0.0
    vertex 117.50000000000013 120.00000000000011 74.99999999999962
    vertex 117.50000000000013 120.00000000000011 0.0
  endloop
endfacet
facet normal 8.95117313604036e-16 1.0 0.0
  outer loop
    vertex 235.0000000000001 120.00000000000003 75.00000000000009
    vertex 117.50000000000013 120.00000000000011 0.0
    vertex 117.50000000000013 120.00000000000011 74.99999999999962
  endloop
endfacet
facet normal 8.95117313604036e-16 1.0 0.0
  outer loop
    vertex 117.50000000000013 120.00000000000011 0.0
    vertex 235.0000000000001 120.00000000000003 75.00000000000009
    vertex 235.0000000000001 120.00000000000003 0.0
  endloop
endfacet
facet normal -8.95117313604036e-16 -1.0 0.0
  outer loop
    vertex 117.50000000000001 1.5791812302268225e-13 0.0
    vertex -1.7175150190951574e-14 2.7071678232459813e-13 74.99999999999908
    vertex -1.7175150190951574e-14 2.7071678232459813e-13 0.0
  endloop
endfacet
facet normal -8.95117313604036e-16 -1.0 0.0
  outer loop
    vertex -1.7175150190951574e-14 2.7071678232459813e-13 74.99999999999908
    vertex 117.50000000000001 1.5791812302268225e-13 0.0
    vertex 117.50000000000001 1.5791812302268225e-13 74.99999999999962
  endloop
endfacet
facet normal 1.0 -8.95117313604036e-16 0.0
  outer loop
    vertex 235.0000000000001 120.00000000000003 75.00000000000009
    vertex 235.00000000000003 6.767919558114953e-14 0.0
    vertex 235.0000000000001 120.00000000000003 0.0
  endloop
endfacet
facet normal 1.0 -8.95117313604036e-16 0.0
  outer loop
    vertex 235.00000000000003 6.767919558114953e-14 0.0
    vertex 235.0000000000001 120.00000000000003 75.00000000000009
    vertex 235.00000000000003 6.767919558114953e-14 75.00000000000009
  endloop
endfacet
facet normal -1.0 8.95117313604036e-16 0.0
  outer loop
    vertex 117.50000000000001 1.5791812302268225e-13 74.99999999999962
    vertex 117.50000000000013 120.00000000000011 0.0
    vertex 117.50000000000001 1.5791812302268225e-13 0.0
  endloop
endfacet
facet normal -1.0 8.95117313604036e-16 0.0
  outer loop
    vertex 117.50000000000013 120.00000000000011 0.0
    vertex 117.50000000000001 1.5791812302268225e-13 74.99999999999962
    vertex 117.50000000000013 120.00000000000011 74.99999999999962
  endloop
endfacet
endsolid StorageComparments
