solid Storage Module
facet normal 1.0 0.0 0.0
  outer loop
    vertex 154.29156733071395 159.67704391984253 0.0
    vertex 154.29156733071395 42.17704391984255 74.99999999999908
    vertex 154.29156733071395 42.17704391984255 0.0
  endloop
endfacet
facet normal 1.0 0.0 0.0
  outer loop
    vertex 154.29156733071395 42.17704391984255 74.99999999999908
    vertex 154.29156733071395 159.67704391984253 0.0
    vertex 154.29156733071395 159.67704391984253 74.99999999999962
  endloop
endfacet
facet normal 0.0 -1.0 0.0
  outer loop
    vertex 154.29156733071395 159.67704391984253 74.99999999999962
    vertex 34.29156733071396 159.67704391984253 0.0
    vertex 154.29156733071395 159.67704391984253 0.0
  endloop
endfacet
facet normal 0.0 -1.0 0.0
  outer loop
    vertex 34.29156733071396 159.67704391984253 0.0
    vertex 154.29156733071395 159.67704391984253 74.99999999999962
    vertex 34.29156733071396 159.67704391984253 74.99999999999962
  endloop
endfacet
facet normal -1.0 0.0 0.0
  outer loop
    vertex 34.29156733071396 277.1770439198425 75.00000000000009
    vertex 34.29156733071396 159.67704391984253 0.0
    vertex 34.29156733071396 159.67704391984253 74.99999999999962
  endloop
endfacet
facet normal -1.0 0.0 0.0
  outer loop
    vertex 34.29156733071396 159.67704391984253 0.0
    vertex 34.29156733071396 277.1770439198425 75.00000000000009
    vertex 34.29156733071396 277.1770439198425 0.0
  endloop
endfacet
facet normal -1.0 0.0 0.0
  outer loop
    vertex 34.29156733071396 159.67704391984253 74.99999999999962
    vertex 34.29156733071396 42.17704391984255 0.0
    vertex 34.29156733071396 42.17704391984255 74.99999999999908
  endloop
endfacet
facet normal -1.0 0.0 0.0
  outer loop
    vertex 34.29156733071396 42.17704391984255 0.0
    vertex 34.29156733071396 159.67704391984253 74.99999999999962
    vertex 34.29156733071396 159.67704391984253 0.0
  endloop
endfacet
facet normal 0.0 0.0 -1.0
  outer loop
    vertex 154.29156733071395 277.1770439198425 0.0
    vertex 34.29156733071396 159.67704391984253 0.0
    vertex 34.29156733071396 277.1770439198425 0.0
  endloop
endfacet
facet normal 0.0 0.0 -1.0
  outer loop
    vertex 34.29156733071396 159.67704391984253 0.0
    vertex 154.29156733071395 277.1770439198425 0.0
    vertex 154.29156733071395 159.67704391984253 0.0
  endloop
endfacet
facet normal 1.0 0.0 0.0
  outer loop
    vertex 154.29156733071395 277.1770439198425 0.0
    vertex 154.29156733071395 159.67704391984253 74.99999999999962
    vertex 154.29156733071395 159.67704391984253 0.0
  endloop
endfacet
facet normal 1.0 0.0 0.0
  outer loop
    vertex 154.29156733071395 159.67704391984253 74.99999999999962
    vertex 154.29156733071395 277.1770439198425 0.0
    vertex 154.29156733071395 277.1770439198425 75.00000000000009
  endloop
endfacet
facet normal 0.0 -1.0 0.0
  outer loop
    vertex 154.29156733071395 42.17704391984255 74.99999999999908
    vertex 34.29156733071396 42.17704391984255 0.0
    vertex 154.29156733071395 42.17704391984255 0.0
  endloop
endfacet
facet normal 0.0 -1.0 0.0
  outer loop
    vertex 34.29156733071396 42.17704391984255 0.0
    vertex 154.29156733071395 42.17704391984255 74.99999999999908
    vertex 34.29156733071396 42.17704391984255 74.99999999999908
  endloop
endfacet
facet normal -1.901587300908018e-32 0.5380354529218634 0.8429222095775892
  outer loop
    vertex 154.29156733071395 42.17704391984255 74.99999999999908
    vertex 94.29156733071395 100.92704391984255 37.49999999999921
    vertex 34.29156733071396 42.17704391984255 74.99999999999908
  endloop
endfacet
facet normal -0.529998940003178 -3.413961622550229e-15 0.8479983040050894
  outer loop
    vertex 154.29156733071395 277.1770439198425 75.00000000000009
    vertex 94.29156733071395 218.42704391984253 37.500000000000064
    vertex 154.29156733071395 159.67704391984253 74.99999999999962
  endloop
endfacet
facet normal -0.5299989400031816 -3.906698351578086e-15 0.8479983040050871
  outer loop
    vertex 154.29156733071395 159.67704391984253 74.99999999999962
    vertex 94.29156733071395 100.92704391984255 37.49999999999921
    vertex 154.29156733071395 42.17704391984255 74.99999999999908
  endloop
endfacet
facet normal -1.0704984824727315e-17 0.5380354529218604 0.8429222095775912
  outer loop
    vertex 154.29156733071395 159.67704391984253 74.99999999999962
    vertex 94.29156733071395 218.42704391984253 37.500000000000064
    vertex 34.29156733071396 159.67704391984253 74.99999999999962
  endloop
endfacet
facet normal 0.0 -0.5380354529218652 0.8429222095775881
  outer loop
    vertex 154.29156733071395 277.1770439198425 75.00000000000009
    vertex 34.29156733071396 277.1770439198425 75.00000000000009
    vertex 94.29156733071395 218.42704391984253 37.500000000000064
  endloop
endfacet
facet normal 0.529998940003178 -3.413961622550228e-15 0.8479983040050894
  outer loop
    vertex 94.29156733071395 218.42704391984253 37.500000000000064
    vertex 34.29156733071396 277.1770439198425 75.00000000000009
    vertex 34.29156733071396 159.67704391984253 74.99999999999962
  endloop
endfacet
facet normal 0.0 0.0 -1.0
  outer loop
    vertex 154.29156733071395 159.67704391984253 0.0
    vertex 34.29156733071396 42.17704391984255 0.0
    vertex 34.29156733071396 159.67704391984253 0.0
  endloop
endfacet
facet normal 0.0 0.0 -1.0
  outer loop
    vertex 34.29156733071396 42.17704391984255 0.0
    vertex 154.29156733071395 159.67704391984253 0.0
    vertex 154.29156733071395 42.17704391984255 0.0
  endloop
endfacet
facet normal 3.8031746018160756e-32 -0.538035452921869 0.8429222095775857
  outer loop
    vertex 154.29156733071395 159.67704391984253 74.99999999999962
    vertex 34.29156733071396 159.67704391984253 74.99999999999962
    vertex 94.29156733071395 100.92704391984255 37.49999999999921
  endloop
endfacet
facet normal 0.5299989400031816 -3.906698351578086e-15 0.8479983040050871
  outer loop
    vertex 94.29156733071395 100.92704391984255 37.49999999999921
    vertex 34.29156733071396 159.67704391984253 74.99999999999962
    vertex 34.29156733071396 42.17704391984255 74.99999999999908
  endloop
endfacet
facet normal 0.0 1.0 0.0
  outer loop
    vertex 34.29156733071396 277.1770439198425 75.00000000000009
    vertex 154.29156733071395 277.1770439198425 0.0
    vertex 34.29156733071396 277.1770439198425 0.0
  endloop
endfacet
facet normal 0.0 1.0 0.0
  outer loop
    vertex 154.29156733071395 277.1770439198425 0.0
    vertex 34.29156733071396 277.1770439198425 75.00000000000009
    vertex 154.29156733071395 277.1770439198425 75.00000000000009
  endloop
endfacet
endsolid Storage Module
